<svg xmlns="http://www.w3.org/2000/svg" xmlns:xlink="http://www.w3.org/1999/xlink" width="500" height="300" viewBox="0 0 500 300">
  <defs>
    <clipPath id="clip-logo-withbg">
      <rect width="500" height="300"/>
    </clipPath>
  </defs>
  <g id="logo-withbg" clip-path="url(#clip-logo-withbg)">
    <rect width="500" height="300" fill="#f5f5f5"/>
    <g id="logo-colored-copy-2" transform="translate(174.791 110.805)">
      <path id="Fill-1" d="M31.661,22.6a15.324,15.324,0,0,1,5.933,9.742H27.558a7.737,7.737,0,0,0-3.049-3.349,9.338,9.338,0,0,0-4.935-1.245,9.229,9.229,0,0,0-7.208,3.017,11.744,11.744,0,0,0-2.717,8.164q0,5.591,2.856,8.579t8.123,2.989a9.6,9.6,0,0,0,9.537-7.14H18.187V36.546H38.093V45.9a19.091,19.091,0,0,1-3.549,6.365,18.269,18.269,0,0,1-6.238,4.76,19.791,19.791,0,0,1-8.678,1.826A20.635,20.635,0,0,1,9.26,56.333a17.255,17.255,0,0,1-6.848-7.057A21.707,21.707,0,0,1,0,38.926a21.709,21.709,0,0,1,2.412-10.35,17.318,17.318,0,0,1,6.82-7.057A20.374,20.374,0,0,1,19.518,19q7.374,0,12.143,3.6" transform="translate(0 -7.865)" fill="#b2b2b2"/>
      <path id="Fill-3" d="M83.291,30.736A11.682,11.682,0,0,0,80.569,38.9a11.7,11.7,0,0,0,2.722,8.135,10.391,10.391,0,0,0,14.655,0A11.627,11.627,0,0,0,100.7,38.9a11.707,11.707,0,0,0-2.722-8.135,10.46,10.46,0,0,0-14.683-.027m17.322-9.18a18.631,18.631,0,0,1,7.067,7.091A20.338,20.338,0,0,1,110.266,38.9a20.314,20.314,0,0,1-2.613,10.279,18.762,18.762,0,0,1-7.094,7.119,20.555,20.555,0,0,1-19.853,0,18.755,18.755,0,0,1-7.094-7.119A20.313,20.313,0,0,1,71,38.9a20.167,20.167,0,0,1,2.612-10.251,18.815,18.815,0,0,1,7.094-7.091,20.658,20.658,0,0,1,19.907,0" transform="translate(-29.39 -7.865)" fill="#b2b2b2"/>
      <path id="Fill-5" d="M152.076,57.037h9.781V47.626h-9.781Zm10-40.837-1.154,26.913h-7.968L151.8,16.2Z" transform="translate(-62.838 -6.706)" fill="#b2b2b2"/>
      <path id="Fill-7" d="M24.395,103.437v17.771H20.073V110.094l-3.842,11.113H12.49L8.624,110.069v11.138H4.3V103.437H9.584l4.828,12.379,4.726-12.379Z" transform="translate(-1.781 -42.817)" fill="#b2b2b2"/>
      <path id="Fill-8" d="M52.724,114.651,50.5,108.069l-2.249,6.582Zm1.112,3.291h-6.7l-1.112,3.265h-4.55l6.546-17.771H53l6.546,17.771h-4.6Z" transform="translate(-17.169 -42.817)" fill="#b2b2b2"/>
      <path id="Fill-9" d="M91.032,121.118H86.71l-7.228-10.987v10.987H75.159v-17.9h4.322l7.228,11.087V103.221h4.322Z" transform="translate(-31.112 -42.728)" fill="#b2b2b2"/>
      <path id="Fill-10" d="M107.331,121.118h4.322v-17.9h-4.322Z" transform="translate(-44.429 -42.728)" fill="#b2b2b2"/>
      <path id="Fill-11" d="M124.117,117.8h5.763v3.316H119.794v-17.9h4.322Z" transform="translate(-49.588 -42.728)" fill="#b2b2b2"/>
      <path id="Fill-12" d="M149.457,114.651l-2.224-6.582-2.249,6.582Zm1.112,3.291h-6.7l-1.112,3.265h-4.55l6.546-17.771h4.979l6.546,17.771h-4.6Z" transform="translate(-57.212 -42.817)" fill="#b2b2b2"/>
      <path id="Fill-13" d="M210.147,92.808l1.77,1.024.128-.222-1.77-1.023Z" transform="translate(-86.99 -38.326)" fill="#b2b2b2"/>
      <path id="Fill-14" d="M213.974,107.552l.221.128,1.022-1.773L215,105.78Z" transform="translate(-88.574 -43.787)" fill="#b2b2b2"/>
      <path id="Fill-15" d="M218.77,89.566l.241-.415.281.415h.382l-.448-.662.42-.672h-.367l-.235.4-.273-.4h-.383l.439.647-.426.687Z" transform="translate(-90.401 -36.523)" fill="#b2b2b2"/>
      <path id="Fill-16" d="M219.885,97.461c.43,0,.538-.539.538-1.4a27.485,27.485,0,0,0-.407-3.037.5.5,0,0,0,.407-.521,1.882,1.882,0,0,0-.538-1.078,1.882,1.882,0,0,0-.539,1.078.5.5,0,0,0,.408.521,27.4,27.4,0,0,0-.408,3.037c0,.863.108,1.4.539,1.4" transform="translate(-90.798 -37.844)" fill="#b2b2b2"/>
      <path id="Fill-17" d="M218.773,108.432h.322V107.1h-.322Z" transform="translate(-90.56 -44.333)" fill="#b2b2b2"/>
      <path id="Fill-18" d="M214.605,90.242l-1.332-1.552-.194.167,1.332,1.552Z" transform="translate(-88.203 -36.712)" fill="#b2b2b2"/>
      <path id="Fill-19" d="M210.083,104.812l.167.194,1.55-1.334-.167-.194Z" transform="translate(-86.963 -42.834)" fill="#b2b2b2"/>
      <path id="Fill-20" d="M220.793,89.566h.322V88.233h-.322Z" transform="translate(-91.397 -36.523)" fill="#b2b2b2"/>
      <path id="Fill-21" d="M208.242,99.7h1.332v-.323h-1.332Z" transform="translate(-86.201 -41.135)" fill="#b2b2b2"/>
      <path id="Fill-22" d="M209.574,98.234v-.37l-.414-.241.414-.281v-.383l-.661.449-.671-.421v.368l.4.236-.4.273v.383l.646-.439Z" transform="translate(-86.201 -40.135)" fill="#b2b2b2"/>
      <path id="Fill-23" d="M230.131,98.993h1.331v-.322h-1.331Z" transform="translate(-95.262 -40.844)" fill="#b2b2b2"/>
      <path id="Fill-24" d="M230.131,98.063h1.331v-.322h-1.331Z" transform="translate(-95.262 -40.459)" fill="#b2b2b2"/>
      <path id="Fill-25" d="M227.686,93.219l1.55-1.334-.166-.194-1.55,1.334Z" transform="translate(-94.181 -37.955)" fill="#b2b2b2"/>
      <path id="Fill-26" d="M230.131,97.133h1.331v-.322h-1.331Z" transform="translate(-95.262 -40.074)" fill="#b2b2b2"/>
      <path id="Fill-27" d="M204.891,65.5a7.557,7.557,0,1,1,7.919-7.548,7.74,7.74,0,0,1-7.919,7.548Zm15.328-15.1-1.022.256v-2.3l-.766-1.279V35.309l2.171-1.535v-.9l.383-.384h-2.3V30.7l2.044-.256V29.68l.766-.256-2.3-2.3-2.81.768c0-7.105-5.025-9.649-8.43-10.557v-.7l-1.15-.64V10.618a1.761,1.761,0,0,0-1.277-.768V8.571l.766-.512-.766-.511V3.966l-.255-.256v-2.3L204.891,0l-.383,1.407v2.3l-.255.256V7.548l-.766.511.766.512V9.851a1.761,1.761,0,0,0-1.277.768v5.373l-1.15.64v.7c-3.405.908-8.43,3.452-8.43,10.557l-2.81-.768-2.3,2.3.766.256v.768l2.044.256v1.791h-2.3l.383.384v.9l2.171,1.535v11.77l-.766,1.279v2.3l-1.022-.256-6.131,5.373.511,1.023V78.295h41.9V56.8l.511-1.023Z" transform="translate(-75.931 0)" fill="#b2b2b2"/>
      <path id="Fill-28" d="M227.147,103.286l1.77,1.024.128-.222-1.77-1.023Z" transform="translate(-94.027 -42.663)" fill="#b2b2b2"/>
      <path id="Fill-29" d="M221.723,89.566h.322V88.233h-.322Z" transform="translate(-91.782 -36.523)" fill="#b2b2b2"/>
      <path id="Fill-30" d="M220,107.1l-.463,1.334h.345l.326-1,.326,1h.345l-.462-1.334Z" transform="translate(-90.876 -44.333)" fill="#b2b2b2"/>
      <path id="Fill-31" d="M225.458,88.753l-1.022,1.773.221.128,1.022-1.773Z" transform="translate(-92.905 -36.739)" fill="#b2b2b2"/>
      <path id="Fill-32" d="M224.849,106.32l1.332,1.552.194-.167-1.332-1.552Z" transform="translate(-93.075 -43.942)" fill="#b2b2b2"/>
    </g>
  </g>
</svg>
