<svg xmlns="http://www.w3.org/2000/svg" width="1441.346" height="684.258" viewBox="0 0 1441.346 684.258"><defs><style>.a{fill:#5da5e0;}.b{fill:#bdd1f9;}.c{fill:#c3e0ff;}.d{fill:#91b5f8;}.e{fill:#7c9af2;}.f{fill:#060633;}.g{fill:#fb9391;}.h{fill:#fff;}.i{fill:#17152b;}.j{fill:#2e2f43;}.k{fill:#ea6868;}.l{fill:#0a0a0a;}.m{fill:#5994db;}.n{fill:#fa7267;}.o{fill:#0b0755;}.p{fill:#240d39;}.q{fill:#2f3dbc;}.r{fill:#dde7fe;}.s{fill:#131375;}.t{fill:#050521;}.u{fill:#485f9c;}.v{fill:#fafafc;}.w{fill:#eef5ff;}</style></defs><g transform="translate(-152.965 -363.363)"><path class="a" d="M1671.946,1565.625c0-29.547-287.646-53.5-710.586-53.5s-730.76,20.023-730.76,49.558,307.821,57.42,730.76,57.42S1671.946,1595.164,1671.946,1565.625Z" transform="translate(-77.635 -571.485)"/><path class="b" d="M1155.77,1042.684a1.044,1.044,0,0,0,.173-.08,1.023,1.023,0,0,0,.274-.239.975.975,0,0,0,.156-.325.889.889,0,0,0,.024-.363.978.978,0,0,0-.117-.342C1089.013,925.388,1033.871,845.351,1001,815.995c-.727-.654-1.251-1.118-1.476-1.376a.929.929,0,0,0-1.4,1.219,22.217,22.217,0,0,0,1.638,1.538c32.716,29.255,87.731,109.13,154.886,224.914a.9.9,0,0,0,.493.393A.937.937,0,0,0,1155.77,1042.684Z" transform="translate(-415.903 -263.864)"/><path class="b" d="M967.773,800.45c3.841,3.266,20.167,7.046,21.1,5.948s-5.445-16.595-9.282-19.854a9.126,9.126,0,1,0-11.814,13.914Z" transform="translate(-401.278 -250.728)"/><path class="b" d="M1025.672,815.6c-.3,5.15,6.665,20.813,8.129,20.9s10.2-14.661,10.5-19.811a9.334,9.334,0,1,0-18.637-1.085Z" transform="translate(-428.133 -260.548)"/><path class="b" d="M998.163,866.625c5.082-.866,18.771-11.183,18.524-12.632s-16.584-6.638-21.668-5.77a9.334,9.334,0,1,0,3.143,18.4Z" transform="translate(-411.203 -278.764)"/><path class="b" d="M1137.476,942.01c-1.432,8.533,7.359,35.932,9.791,36.346s19.682-22.623,21.1-31.156a15.666,15.666,0,1,0-30.9-5.184Z" transform="translate(-477.357 -314.388)"/><path class="b" d="M1082.3,1022.129c8.632-.525,33.348-15.26,33.2-17.725s-26.472-14.079-35.111-13.548a15.664,15.664,0,1,0,1.914,31.27Z" transform="translate(-445.773 -341.676)"/><path class="b" d="M1188.489,989.456c-4.008,9.8-.9,44.868,1.9,46.012s29.585-21.707,33.589-31.509a19.169,19.169,0,1,0-35.489-14.505Z" transform="translate(-499.074 -335.815)"/><path class="b" d="M1110.125,1094.31c10.445-1.728,38.671-22.769,38.178-25.755s-34-13.8-44.447-12.072a19.174,19.174,0,0,0,6.269,37.833Z" transform="translate(-455.715 -370.534)"/><path class="b" d="M1230.075,1056.517c-4,9.8-.9,44.868,1.9,46.019s29.584-21.705,33.588-31.509a19.17,19.17,0,0,0-35.488-14.51Z" transform="translate(-517.406 -365.379)"/><path class="b" d="M1151,1161.379c10.445-1.734,38.671-22.775,38.178-25.754s-34-13.806-44.442-12.072a19.174,19.174,0,0,0,6.263,37.833Z" transform="translate(-473.355 -400.101)"/><path class="b" d="M1293.809,1140.139c-7.437,7.538-17.894,41.148-15.77,43.273s35.624-8.8,43.056-16.338a19.174,19.174,0,1,0-27.294-26.936Z" transform="translate(-539.27 -404.895)"/><path class="b" d="M1191.462,1228.067c10.579-.408,41.216-17.759,41.1-20.778s-32.006-17.944-42.585-17.536a19.172,19.172,0,1,0,1.489,38.315Z" transform="translate(-492.252 -429.365)"/><path class="b" d="M1060.292,855.427c-.3,5.228,6.771,21.143,8.264,21.247s10.368-14.9,10.67-20.13a9.505,9.505,0,1,0-18.934-1.118Z" transform="translate(-443.396 -277.746)"/><path class="b" d="M1033.111,908.062c5.159-.877,19.073-11.356,18.821-12.819s-16.847-6.749-22.013-5.866a9.507,9.507,0,1,0,3.192,18.695Z" transform="translate(-426.229 -296.899)"/><path class="b" d="M1097.418,890.235c-1.04,7.369,7.124,30.754,9.224,31.021s16.415-19.884,17.451-27.254a13.471,13.471,0,1,0-26.677-3.769Z" transform="translate(-459.726 -292.22)"/><path class="b" d="M1053.782,964.849c7.335-1.251,27.1-16.137,26.744-18.229s-23.938-9.583-31.267-8.331a13.472,13.472,0,0,0,4.534,26.56Z" transform="translate(-433.592 -318.449)"/><path class="c" d="M1898.587,762.116l-.156-.061a.784.784,0,0,1-.257-.211.807.807,0,0,1-.156-.294.817.817,0,0,1-.032-.333.87.87,0,0,1,.1-.313c57.592-109.449,105.389-185.326,134.57-213.664a16.911,16.911,0,0,0,1.3-1.326.861.861,0,0,1,1.343,1.074,20.058,20.058,0,0,1-1.454,1.482c-29.048,28.215-76.727,103.942-134.247,213.206a.847.847,0,0,1-1,.447Z" transform="translate(-812.683 -145.406)"/><path class="c" d="M2154.1,531.829c-3.422,3.153-18.323,7.269-19.229,6.285s4.39-15.505,7.829-18.654a8.415,8.415,0,1,1,11.413,12.37Z" transform="translate(-917.08 -132.888)"/><path class="c" d="M2104.959,548.086c.469,4.735-5.357,19.437-6.71,19.57s-9.965-13.132-10.433-17.86a8.612,8.612,0,1,1,17.139-1.71Z" transform="translate(-896.36 -143.072)"/><path class="c" d="M2124.335,594.063c-4.712-.6-17.731-9.589-17.556-10.943s15.034-6.749,19.753-6.15a8.612,8.612,0,0,1-2.2,17.083Z" transform="translate(-904.736 -159.209)"/><path class="c" d="M1997.72,669.05c1.645,7.828-5.418,33.4-7.645,33.868s-19.01-20.13-20.649-27.918a14.457,14.457,0,1,1,28.3-5.95Z" transform="translate(-844.052 -194.757)"/><path class="c" d="M2038.072,740.794c-7.984-.156-31.312-12.8-31.312-15.1s23.869-13.979,31.872-13.828a14.454,14.454,0,1,1-.56,28.9Z" transform="translate(-860.646 -218.693)"/><path class="c" d="M1947.089,714.863c4.065,8.884,2.532,41.333,0,42.5s-28.1-18.883-32.162-27.768a17.687,17.687,0,1,1,32.163-14.728Z" transform="translate(-819.455 -215.464)"/><path class="c" d="M2007.7,808.488c-9.693-1.2-36.518-19.52-36.177-22.287s30.815-14.018,40.511-12.819a17.688,17.688,0,0,1-4.334,35.109Z" transform="translate(-845.111 -245.772)"/><path class="d" d="M1911.372,778.261c4.065,8.88,2.534,41.327,0,42.5s-28.1-18.882-32.169-27.768a17.69,17.69,0,0,1,32.169-14.728Z" transform="translate(-803.71 -243.412)"/><path class="c" d="M1971.945,871.9c-9.693-1.2-36.518-19.52-36.179-22.289s30.817-14.018,40.512-12.819a17.688,17.688,0,0,1-4.334,35.109Z" transform="translate(-829.347 -273.726)"/><path class="d" d="M1848.459,858.252c7.146,6.666,18.089,37.251,16.182,39.293s-33.169-6.76-40.315-13.42a17.69,17.69,0,1,1,24.133-25.872Z" transform="translate(-777.741 -281.131)"/><path class="c" d="M1936.967,934.923c-9.769,0-38.67-14.8-38.677-17.591s28.819-17.76,38.582-17.786a17.691,17.691,0,1,1,.089,35.381Z" transform="translate(-812.827 -301.429)"/><path class="c" d="M2074.361,586.684c.48,4.809-5.441,19.75-6.812,19.884s-10.121-13.342-10.631-18.15a8.755,8.755,0,0,1,17.412-1.734Z" transform="translate(-882.747 -160.078)"/><path class="c" d="M2092.853,633.627c-4.792-.625-18.016-9.746-17.844-11.115s15.283-6.86,20.076-6.239a8.755,8.755,0,0,1-2.239,17.334Z" transform="translate(-890.73 -176.53)"/><path class="c" d="M2035.828,619.937c1.24,6.749-5.4,28.6-7.326,28.947s-15.886-17.708-17.128-24.463a12.43,12.43,0,1,1,24.454-4.473Z" transform="translate(-862.61 -173.788)"/><path class="c" d="M2067.384,686.854c-6.805-.877-25.592-13.845-25.345-15.79s21.705-9.746,28.515-8.869a12.431,12.431,0,1,1-3.17,24.659Z" transform="translate(-876.198 -196.766)"/><path class="e" d="M1162.655,1355.124s47.164-83.61-108.475-139.934C1054.18,1215.19,1059.961,1385.571,1162.655,1355.124Z" transform="translate(-440.704 -440.582)"/><path class="c" d="M1053.82,1214.71l112.717,128.767C1173.243,1318.875,1174.921,1258.537,1053.82,1214.71Z" transform="translate(-440.546 -440.369)"/><path class="f" d="M1161.329,1338.111a.447.447,0,0,1-.208-.13l-107.956-123.334a.441.441,0,0,1-.1-.312.426.426,0,0,1,.146-.291.391.391,0,0,1,.3-.1.408.408,0,0,1,.291.141l107.956,123.347a.428.428,0,0,1,.1.3.411.411,0,0,1-.141.291.4.4,0,0,1-.185.084.417.417,0,0,1-.2,0Z" transform="translate(-440.211 -440.035)"/><path class="f" d="M1073.283,1320.452a.416.416,0,0,1-.245-.178.456.456,0,0,1-.062-.312.417.417,0,0,1,.167-.257.432.432,0,0,1,.3-.08l45.224,5.316a.443.443,0,0,1,.274.156.409.409,0,0,1,.083.313.44.44,0,0,1-.157.28.412.412,0,0,1-.3.089l-45.224-5.315Z" transform="translate(-448.989 -486.623)"/><path class="f" d="M1187.921,1342.758a.511.511,0,0,1-.2-.112.469.469,0,0,1-.107-.2l-9.635-43.646a.464.464,0,0,1-.017-.174.427.427,0,0,1,.056-.156.383.383,0,0,1,.268-.2.34.34,0,0,1,.169,0,.437.437,0,0,1,.156.067.519.519,0,0,1,.116.129.429.429,0,0,1,.056.156l9.629,43.647a.493.493,0,0,1,0,.156.448.448,0,0,1-.061.157.324.324,0,0,1-.113.117.372.372,0,0,1-.156.067.442.442,0,0,1-.191,0Z" transform="translate(-495.275 -477.198)"/><path class="c" d="M1157.945,1442.607s-8.42-79.438-141.1-42.433C1016.838,1400.174,1103.038,1512.848,1157.945,1442.607Z" transform="translate(-424.242 -517.798)"/><path class="e" d="M1016.84,1407.92l141.1,42.433S1115.962,1525.3,1016.84,1407.92Z" transform="translate(-424.244 -525.545)"/><path class="e" d="M1934.737,1321.749s-30.8-121.422,184.458-139.118C2119.2,1182.63,2053.642,1395.209,1934.737,1321.749Z" transform="translate(-828.222 -426.227)"/><path class="c" d="M2119.811,1182.16,1933.83,1305.789C1933.8,1272.487,1952.327,1195.927,2119.811,1182.16Z" transform="translate(-828.494 -426.02)"/><path class="f" d="M1947.476,1300.7a.57.57,0,0,0,.3-.089l178.136-118.4a.547.547,0,0,0-.6-.911l-178.131,118.412a.539.539,0,0,0-.19.274.616.616,0,0,0,0,.336.594.594,0,0,0,.189.275.578.578,0,0,0,.313.117Z" transform="translate(-834.284 -425.604)"/><path class="f" d="M2158.362,1301.557a.586.586,0,0,0,.218-.028.541.541,0,0,0,.192-.106.626.626,0,0,0,.2-.38.7.7,0,0,0-.03-.219.613.613,0,0,0-.1-.191.565.565,0,0,0-.172-.133.588.588,0,0,0-.213-.061l-58.766-8.779a.54.54,0,0,0-.247-.033.511.511,0,0,0-.235.072.594.594,0,0,0-.185.167.58.58,0,0,0-.088.228.645.645,0,0,0,.017.252.623.623,0,0,0,.121.213.606.606,0,0,0,.208.139.519.519,0,0,0,.247.038l58.766,8.785Z" transform="translate(-901.272 -474.275)"/><path class="f" d="M2031.454,1297.453a.547.547,0,0,0,.28-.084.527.527,0,0,0,.2-.211l27.059-51.672a.588.588,0,0,0,.033-.413.53.53,0,0,0-.684-.353.572.572,0,0,0-.313.263l-27.074,51.671a.557.557,0,0,0-.033.414.542.542,0,0,0,.262.324A.585.585,0,0,0,2031.454,1297.453Z" transform="translate(-871.282 -453.587)"/><path class="c" d="M1903.2,1412.08s37.772-97.165,192.2-5.178C2095.4,1406.9,1948.29,1519.3,1903.2,1412.08Z" transform="translate(-814.992 -507.648)"/><path class="e" d="M2095.4,1438.11l-192.2,5.178S1930.437,1552.016,2095.4,1438.11Z" transform="translate(-814.992 -538.854)"/><path class="b" d="M772.036,646.406H722.089a2.189,2.189,0,0,1-2.189-2.189V594.271a2.189,2.189,0,0,1,2.189-2.189h49.95a2.189,2.189,0,0,1,2.189,2.189v49.944a2.189,2.189,0,0,1-2.189,2.189Zm-47.757-4.377h45.565V596.456H724.277Z" transform="translate(-293.34 -165.886)"/><path class="b" d="M754.177,629.142h-.045a2.188,2.188,0,0,1-1.876-1.118c-.067-.117-6.866-12.3-15.488-19.923a2.191,2.191,0,1,1,2.9-3.283,86.549,86.549,0,0,1,14.539,17.892,479.394,479.394,0,0,1,28.676-42.31,2.192,2.192,0,0,1,3.439,2.717A484.336,484.336,0,0,0,756.067,628.1a2.2,2.2,0,0,1-1.89,1.052Z" transform="translate(-300.452 -160.312)"/><path class="b" d="M946.365,546.633H896.421a2.189,2.189,0,0,1-2.189-2.189V494.5a2.189,2.189,0,0,1,2.189-2.189h49.944a2.189,2.189,0,0,1,2.189,2.189v49.948A2.189,2.189,0,0,1,946.365,546.633Zm-47.757-4.377h45.571V496.691H898.608Z" transform="translate(-370.192 -121.904)"/><path class="b" d="M928.44,529.391H928.4a2.172,2.172,0,0,1-1.876-1.118c-.067-.124-6.879-12.3-15.494-19.923a2.191,2.191,0,1,1,2.9-3.283,86.547,86.547,0,0,1,14.539,17.892,476.441,476.441,0,0,1,28.68-42.323,2.192,2.192,0,1,1,3.434,2.717,484.622,484.622,0,0,0-30.269,44.985,2.188,2.188,0,0,1-1.884,1.05Z" transform="translate(-377.235 -116.355)"/><path class="g" d="M2601.536,1265.561a87.787,87.787,0,0,0-4.473,11.317c-.693,3.226-3.809,5.82-2.188,6.838s5.346-4.132,5.346-4.132,1.679,6.5,1.906,8.583,1.543,5.7,3.081,5.659-.2-9.952-.2-9.952,2.281,8.2,3.7,8.47.055-10.631.055-10.631,2,8.873,2.769,9.427,1.51-.4,1.563-3.707a31.551,31.551,0,0,0-.745-6.71,69.457,69.457,0,0,0,2.353,6.782c.481.625,1.627,1.208,1.185-3.707s-3.126-15.381-6.6-20.073Z" transform="translate(-1119.71 -461.981)"/><path class="g" d="M2430.185,806.436a5.978,5.978,0,0,0,1.544-.844c.239,2.086.672,4,.672,4,.76,1.72,1.827-7.571,3.188-6.71,1.632,1.007.855,7.191-.134,10.351a90.871,90.871,0,0,1-5.437,10.891l-7.862,1.118a35.4,35.4,0,0,1-4.165-15.253C2419.046,809.988,2428.361,807.1,2430.185,806.436Z" transform="translate(-1041.933 -258.795)"/><path class="h" d="M2530.623,1553.932s.652,19.279.814,19.572-1.274,2.756-1.274,2.756l-6.021,1.381-5.672-2.281s-.373-17.938-1.094-20.733S2530.623,1553.932,2530.623,1553.932Z" transform="translate(-1085.738 -589.578)"/><path class="i" d="M2518.948,1591.046a15.822,15.822,0,0,0,12.912-2.237s23.746,7.616,23.356,14.291c0,0,1.094,1.934-9.036,2s-25.856.369-26.281.156S2517.535,1606.21,2518.948,1591.046Z" transform="translate(-1086.216 -605.291)"/><path class="h" d="M2391.817,1553.932s-.654,19.279-.816,19.572,1.274,2.756,1.274,2.756l6.021,1.381,5.672-2.281s.372-17.938,1.116-20.733S2391.817,1553.932,2391.817,1553.932Z" transform="translate(-1030.03 -589.578)"/><path class="i" d="M2385.581,1591.046a15.82,15.82,0,0,1-12.911-2.237s-23.746,7.616-23.354,14.291c0,0-1.12,1.934,9.035,2s25.856.369,26.281.156S2386.988,1606.21,2385.581,1591.046Z" transform="translate(-1011.638 -605.291)"/><path class="h" d="M2476.748,989.54l24.232,14.153,3.322,16.6-18.759,91.958L2444.619,1106l15.73-93.311Z" transform="translate(-1053.672 -341.104)"/><path class="j" d="M2401.478,1183.44s-13.42,45.068-18.738,212.809l23.724,5.082s27.785-147.506,29.814-149.346,16.909,149.346,16.909,149.346h25.721l1.353-204.617Z" transform="translate(-1026.394 -426.584)"/><path class="f" d="M2454.354,920.964s-26.718,81.788-30.1,143.7l-30.435-2.27s16.217-68.216,16.217-82.2-9.474-81.391-9.474-97.293,8.119-48.932,8.119-48.932l15.388,3.718S2413.883,897.339,2454.354,920.964Z" transform="translate(-1031.279 -272.528)"/><path class="f" d="M2526.318,1014.85s-18.039,77.369-18.94,91.216-5.3,41.88-5.3,41.88l31.892,1.839,3.159-54.646s9.92,20.828,12.174,29.792,6.314,33.768,6.314,33.768h18.038s2.708-55.464-6.764-84.322S2553.937,1031.149,2526.318,1014.85Z" transform="translate(-1079.004 -352.263)"/><path class="k" d="M2508.288,937.274s-.56-2.823-2.092-2.4c-3.908,1.118-2.163,5.267-.458,6.738Z" transform="translate(-1079.777 -316.987)"/><path class="g" d="M2510.394,913.952c.082-.234.174-.469.267-.705a19.57,19.57,0,1,1,31.6,21.6c-3.417,3.546-6.38,6.566-9.181,8.947a27.981,27.981,0,0,0-9.131,15.21l-1.056,4.67c-13.559,1.347-16.368-6.253-16.368-6.253l3.077-8.068a2.185,2.185,0,0,0-.017-1.574,2.157,2.157,0,0,0-1.073-1.149C2495.1,940.036,2507.833,920.168,2510.394,913.952Z" transform="translate(-1079.177 -302.118)"/><path class="l" d="M2518.226,937.748a1.418,1.418,0,0,1,2.622,0,1.372,1.372,0,0,1,.083.821,1.42,1.42,0,1,1-2.7-.818Z" transform="translate(-1086.076 -317.885)"/><path class="l" d="M2544.057,955.23a1.445,1.445,0,0,1,.52-.643,1.429,1.429,0,0,1,1.587-.008,1.4,1.4,0,0,1,.525.638,1.425,1.425,0,1,1-2.626,1.109,1.447,1.447,0,0,1,0-1.094Z" transform="translate(-1097.463 -325.587)"/><path class="f" d="M2550.907,949.947a1.06,1.06,0,0,0,1.052-.138,1.039,1.039,0,0,0,.333-.436,1.053,1.053,0,0,0,.074-.544,5.724,5.724,0,0,0-6.52-4.653,1.069,1.069,0,0,0-.781.343,1.16,1.16,0,0,0-.225.372,1.1,1.1,0,0,0-.055.431,1.082,1.082,0,0,0,.116.419,1.114,1.114,0,0,0,.28.336,1.063,1.063,0,0,0,.821.223,3.606,3.606,0,0,1,4.249,2.847,1.135,1.135,0,0,0,.223.484,1.09,1.09,0,0,0,.43.313Z" transform="translate(-1097.831 -321.105)"/><path class="f" d="M2524.649,933.612a1.118,1.118,0,0,0,.558.067,1.061,1.061,0,0,0,.7-.423,1.077,1.077,0,0,0,.179-.378,1.025,1.025,0,0,0,.017-.418,5.726,5.726,0,0,0-6.521-4.652,1.052,1.052,0,0,0-.725.369,1.067,1.067,0,0,0,.887,1.762,3.607,3.607,0,0,1,4.251,2.847,1.071,1.071,0,0,0,.655.827Z" transform="translate(-1086.284 -313.888)"/><path class="f" d="M2573.444,946.459l-9.725,10.005-3.018-2.007,4.513-16.612Z" transform="translate(-1104.846 -318.311)"/><path class="g" d="M2558.355,965.938a2.916,2.916,0,0,1,1.935-.7,4.884,4.884,0,0,1,4.781,2.5c1.309,3.136-5.592,7.191-8.8,2.443C2556.269,970.188,2555.521,968.408,2558.355,965.938Z" transform="translate(-1102.853 -330.397)"/><path class="k" d="M2522.289,953.486a3.659,3.659,0,0,0,3.108,1.174.3.3,0,0,0,.185-.134.32.32,0,0,0,.05-.224.341.341,0,0,0-.117-.2.329.329,0,0,0-.219-.069,2.97,2.97,0,0,1-3.085-1.817,1.107,1.107,0,0,1-.169-.738c.072-.208.421-.364.9-.588a9.334,9.334,0,0,0,4.642-4.328.312.312,0,0,0,.028-.244.285.285,0,0,0-.057-.111.3.3,0,0,0-.095-.081.349.349,0,0,0-.117-.039.342.342,0,0,0-.129.01.273.273,0,0,0-.105.056.358.358,0,0,0-.084.1,8.607,8.607,0,0,1-4.356,4.065c-.6.273-1.07.492-1.238.938a1.65,1.65,0,0,0-.026.635,1.611,1.611,0,0,0,.224.6,4.226,4.226,0,0,0,.66.994Z" transform="translate(-1087.517 -321.948)"/><path class="h" d="M2524.358,965.243s-7.218-1.979-10.74-5.794c0,0-1.094,5.727,2.73,7.79S2524.358,965.243,2524.358,965.243Z" transform="translate(-1084.028 -327.839)"/><path class="f" d="M2555.869,924.785a8.775,8.775,0,0,0,2.265-3.489,31.659,31.659,0,0,0,2.062-16.657,8.748,8.748,0,0,0-2.053-5.032,1.207,1.207,0,0,0-.67-.4c-.642-.085-1.018.7-1.185,1.324l-1.158,4.377a51.861,51.861,0,0,0-5.223-8.767,17.481,17.481,0,0,0-8.084-6.017,2.708,2.708,0,0,0-2.714.235c-.921.911-.312,2.454.355,3.572-6.579-1.72-13.612-3.439-20.06-1.274-.888.3-1.906.872-1.906,1.812s.916,1.482,1.771,1.678a6.967,6.967,0,0,1,2.524.733,24.9,24.9,0,0,1-3.357.912c-1.118.352-2.235,1.191-2.279,2.354-.085,1.756,2.079,2.606,3.813,2.941l14.494,2.8c-.687.99-1.925,1.407-2.869,2.163s-1.543,2.315-.625,3.1a2.6,2.6,0,0,0,1.443.469l10.824,1.251a4.078,4.078,0,0,0-1.951,4.115,6.6,6.6,0,0,0,2.064,3.411C2545.8,922.807,2552.513,927.588,2555.869,924.785Z" transform="translate(-1085.21 -297.174)"/><path class="f" d="M2520.294,912s-3.355.76-8.5,11.484c0,0,4.149-12.608,6.061-13.42S2520.294,912,2520.294,912Z" transform="translate(-1083.284 -306.001)"/><path class="m" d="M2511.76,1009.81v6.71l3.494,1.632,5.073-3.383-3.159-4.959Z" transform="translate(-1083.273 -350.04)"/><path class="h" d="M2527.187,1003.92l-.984-4.815-10.787,2.411-4.574-9.416-2.115,1.051-1.207,9.641,7.274-.167,3.663,5.8Z" transform="translate(-1081.403 -342.234)"/><path class="m" d="M2491.047,1021.81l-26.264,78.309,6.315,21.286,16.46-15.79,7.213-83.309Z" transform="translate(-1062.558 -355.33)"/><path class="h" d="M2461.193,579.1l-100.018-29.361L2322.31,682.129l100.022,29.361Z" transform="translate(-999.753 -147.22)"/><path class="b" d="M2435.849,591.714l-42.495-12.48a.21.21,0,0,1-.128-.106.2.2,0,0,1-.025-.167l.2-.666a.218.218,0,0,1,.111-.131.224.224,0,0,1,.167-.019l42.494,12.48a.223.223,0,0,1,.078.039.3.3,0,0,1,.059.066.261.261,0,0,1,.021.083.189.189,0,0,1,0,.086l-.192.666a.218.218,0,0,1-.111.134.232.232,0,0,1-.176.017Z" transform="translate(-1031.002 -159.739)"/><path class="b" d="M2431.65,606.024l-42.5-12.48a.221.221,0,0,1-.128-.106.194.194,0,0,1-.022-.167l.2-.666a.225.225,0,0,1,.113-.131.228.228,0,0,1,.167-.021l42.5,12.475a.242.242,0,0,1,.133.109.218.218,0,0,1,.016.171l-.2.666a.243.243,0,0,1-.038.078.432.432,0,0,1-.069.057.214.214,0,0,1-.085.025.206.206,0,0,1-.089-.008Z" transform="translate(-1029.151 -166.048)"/><path class="b" d="M2445.373,672.238l-42.5-12.475a.21.21,0,0,1-.079-.041.293.293,0,0,1-.058-.067.44.44,0,0,1-.026-.084.213.213,0,0,1,.011-.087l.191-.66a.215.215,0,0,1,.111-.131.228.228,0,0,1,.169-.019l42.494,12.476a.246.246,0,0,1,.08.041.278.278,0,0,1,.056.067.4.4,0,0,1,.029.084.242.242,0,0,1-.01.088l-.2.66a.23.23,0,0,1-.105.13.236.236,0,0,1-.168.022Z" transform="translate(-1035.196 -195.241)"/><path class="b" d="M2440.828,687.849l-42.5-12.475a.232.232,0,0,1-.08-.041.252.252,0,0,1-.054-.067.359.359,0,0,1-.028-.085.21.21,0,0,1,.012-.088l.194-.66a.231.231,0,0,1,.108-.131.224.224,0,0,1,.166-.02l42.5,12.474a.238.238,0,0,1,.134.11.222.222,0,0,1,.017.17l-.2.66a.233.233,0,0,1-.106.131.228.228,0,0,1-.167.02Z" transform="translate(-1033.197 -202.123)"/><path class="b" d="M2459.472,684.846l-58.856-17.283a.218.218,0,0,1-.13-.106.191.191,0,0,1-.021-.167l.2-.666a.219.219,0,0,1,.111-.131.225.225,0,0,1,.167-.019l58.852,17.284a.222.222,0,0,1,.078.041.29.29,0,0,1,.056.067.332.332,0,0,1,.028.083.222.222,0,0,1-.011.088l-.191.66a.206.206,0,0,1-.111.131A.219.219,0,0,1,2459.472,684.846Z" transform="translate(-1034.204 -198.679)"/><path class="b" d="M2420.189,645.047l-42.5-12.474a.22.22,0,0,1-.077-.04.279.279,0,0,1-.056-.067.5.5,0,0,1-.03-.083.219.219,0,0,1,.012-.088l.2-.66a.207.207,0,0,1,.112-.131.223.223,0,0,1,.168-.019l42.5,12.475a.238.238,0,0,1,.135.109.227.227,0,0,1,.017.17l-.195.66a.208.208,0,0,1-.04.078.4.4,0,0,1-.066.056.284.284,0,0,1-.085.025.217.217,0,0,1-.089-.009Z" transform="translate(-1024.097 -183.253)"/><path class="b" d="M2511.647,629.513l-42.494-12.474a.218.218,0,0,1-.08-.041.309.309,0,0,1-.057-.067.355.355,0,0,1-.028-.084.241.241,0,0,1,.011-.088l.2-.66a.187.187,0,0,1,.039-.08.19.19,0,0,1,.065-.058.2.2,0,0,1,.08-.027.206.206,0,0,1,.089.008l42.5,12.48a.212.212,0,0,1,.128.106.194.194,0,0,1,.022.167l-.2.666a.217.217,0,0,1-.108.13.232.232,0,0,1-.167.021Z" transform="translate(-1064.418 -176.402)"/><path class="b" d="M2473.522,628.941l-87.235-25.615a.223.223,0,0,1-.079-.041.309.309,0,0,1-.057-.067.413.413,0,0,1-.027-.083.278.278,0,0,1,.01-.087l.2-.66a.222.222,0,0,1,.276-.156l87.234,25.587a.231.231,0,0,1,.132.109.216.216,0,0,1,.018.171l-.2.664a.227.227,0,0,1-.035.086.2.2,0,0,1-.065.062.228.228,0,0,1-.089.032.225.225,0,0,1-.09,0Z" transform="translate(-1027.891 -170.361)"/><path class="b" d="M2470.274,639.942l-87.234-25.609a.236.236,0,0,1-.134-.109.23.23,0,0,1-.016-.171l.2-.66a.194.194,0,0,1,.039-.077.185.185,0,0,1,.067-.056.18.18,0,0,1,.083-.025.216.216,0,0,1,.085.008l87.234,25.609a.214.214,0,0,1,.081.039.163.163,0,0,1,.053.067.21.21,0,0,1,.03.084.218.218,0,0,1-.011.088l-.189.66a.219.219,0,0,1-.113.131.222.222,0,0,1-.167.019Z" transform="translate(-1026.459 -175.211)"/><path class="b" d="M2467.6,649.079l-87.234-25.615a.243.243,0,0,1-.08-.039.232.232,0,0,1-.054-.066.434.434,0,0,1-.03-.083.2.2,0,0,1,.013-.086l.189-.666a.231.231,0,0,1,.279-.15l87.234,25.615a.22.22,0,0,1,.128.106.2.2,0,0,1,.021.167l-.195.666a.225.225,0,0,1-.274.156Z" transform="translate(-1025.281 -179.237)"/><path class="b" d="M2378.96,662.423l-12.364-3.635a.523.523,0,0,1-.177-.092.536.536,0,0,1-.13-.156.471.471,0,0,1-.062-.192.621.621,0,0,1,.017-.2l3.634-12.363a.483.483,0,0,1,.247-.313.516.516,0,0,1,.19-.061.533.533,0,0,1,.2.017l12.351,3.663a.467.467,0,0,1,.177.092.577.577,0,0,1,.13.156.475.475,0,0,1,.061.191.6.6,0,0,1-.017.2l-3.635,12.363a.518.518,0,0,1-.626.325Zm-11.582-4.473,11.38,3.355,3.356-11.379-11.38-3.355Z" transform="translate(-1019.114 -189.402)"/><path class="b" d="M2430.9,721.674l-42.5-12.48a.21.21,0,0,1-.128-.106.189.189,0,0,1-.021-.167l.194-.666a.23.23,0,0,1,.106-.131.22.22,0,0,1,.166-.02l42.5,12.476a.234.234,0,0,1,.135.109.226.226,0,0,1,.017.17l-.2.66a.238.238,0,0,1-.039.078.208.208,0,0,1-.067.058.178.178,0,0,1-.078.026.207.207,0,0,1-.089,0Z" transform="translate(-1028.819 -217.031)"/><path class="b" d="M2449.562,718.67l-58.856-17.278a.221.221,0,0,1-.156-.28l.195-.66a.209.209,0,0,1,.039-.078.187.187,0,0,1,.067-.057.237.237,0,0,1,.083-.025.216.216,0,0,1,.091.009l58.85,17.278a.227.227,0,0,1,.157.28l-.2.66a.212.212,0,0,1-.1.133.187.187,0,0,1-.084.027.218.218,0,0,1-.085-.008Z" transform="translate(-1029.836 -213.59)"/><path class="b" d="M2367.488,701.445l-12.361-3.624a.512.512,0,0,1-.178-.092.616.616,0,0,1-.129-.156.464.464,0,0,1-.061-.192.635.635,0,0,1,.017-.2l3.633-12.369a.515.515,0,0,1,.638-.347l12.362,3.629a.521.521,0,0,1,.354.643l-3.635,12.363a.507.507,0,0,1-.639.347Zm-11.581-4.474,11.38,3.355,3.355-11.378-11.378-3.355Z" transform="translate(-1014.058 -206.605)"/><path class="n" d="M2378.606,658.671h-.041a.707.707,0,0,1-.312-.239.7.7,0,0,1-.133-.375,22.314,22.314,0,0,0-1.563-7.229.739.739,0,0,1-.067-.272.661.661,0,0,1,.05-.275.639.639,0,0,1,.156-.234.707.707,0,0,1,.229-.156.72.72,0,0,1,.279-.049.673.673,0,0,1,.269.066.686.686,0,0,1,.365.41,23.591,23.591,0,0,1,1.542,6.15,35.808,35.808,0,0,1,12.207-7.99.686.686,0,0,1,.84.905.674.674,0,0,1-.336.369,34.363,34.363,0,0,0-12.766,8.755.684.684,0,0,1-.7.156Z" transform="translate(-1023.629 -190.737)"/><path class="b" d="M2423.26,747.691l-42.5-12.475a.226.226,0,0,1-.129-.106.207.207,0,0,1-.022-.167l.2-.666a.219.219,0,0,1,.272-.15l42.5,12.475a.246.246,0,0,1,.133.11.233.233,0,0,1,.017.17l-.2.66a.231.231,0,0,1-.107.131.218.218,0,0,1-.165.02Z" transform="translate(-1025.452 -228.501)"/><path class="b" d="M2437.334,760.3l-58.852-17.278a.23.23,0,0,1-.133-.109.226.226,0,0,1-.017-.17l.2-.666a.225.225,0,0,1,.275-.156L2437.66,759.2a.228.228,0,0,1,.132.11.217.217,0,0,1,.018.17l-.195.66a.228.228,0,0,1-.04.078.357.357,0,0,1-.067.056.25.25,0,0,1-.084.025.223.223,0,0,1-.089-.008Z" transform="translate(-1024.447 -231.943)"/><path class="b" d="M2356.8,737.873l-12.37-3.635a.527.527,0,0,1-.179-.092.534.534,0,0,1-.128-.156.458.458,0,0,1-.056-.19.414.414,0,0,1,.017-.2l3.628-12.363a.519.519,0,0,1,.637-.352l12.369,3.635a.521.521,0,0,1,.18.092.617.617,0,0,1,.127.156.529.529,0,0,1,.039.392l-3.618,12.369a.493.493,0,0,1-.095.178.519.519,0,0,1-.354.189.509.509,0,0,1-.2-.023Zm-11.586-4.473,11.38,3.355,3.355-11.38-11.378-3.355Z" transform="translate(-1009.342 -222.661)"/><path class="b" d="M2412.94,782.814l-42.5-12.48a.216.216,0,0,1-.079-.039.279.279,0,0,1-.055-.066.2.2,0,0,1-.022-.083.16.16,0,0,1,0-.086l.189-.666a.224.224,0,0,1,.111-.131.228.228,0,0,1,.169-.018l42.5,12.474a.234.234,0,0,1,.132.109.223.223,0,0,1,.018.171l-.2.666a.231.231,0,0,1-.275.156Z" transform="translate(-1020.903 -243.984)"/><path class="b" d="M2408.37,798.423l-42.495-12.48a.223.223,0,0,1-.13-.106.211.211,0,0,1-.021-.167l.2-.664a.218.218,0,0,1,.112-.131.224.224,0,0,1,.167-.019l42.495,12.48a.217.217,0,0,1,.129.106.193.193,0,0,1,.023.167l-.2.666a.2.2,0,0,1-.039.078.416.416,0,0,1-.066.056.26.26,0,0,1-.086.025.229.229,0,0,1-.089-.008Z" transform="translate(-1018.887 -250.865)"/><path class="b" d="M2427.019,795.427l-58.855-17.289a.231.231,0,0,1-.134-.109.222.222,0,0,1-.016-.17l.2-.66a.233.233,0,0,1,.28-.156l58.851,17.306a.249.249,0,0,1,.078.039.307.307,0,0,1,.056.065.25.25,0,0,1,.021.083.176.176,0,0,1,0,.086l-.193.666a.23.23,0,0,1-.111.122A.236.236,0,0,1,2427.019,795.427Z" transform="translate(-1019.896 -247.424)"/><path class="b" d="M2346.481,773l-12.363-3.63a.506.506,0,0,1-.178-.092.542.542,0,0,1-.13-.156.512.512,0,0,1-.062-.192.614.614,0,0,1,.017-.2l3.634-12.369a.508.508,0,0,1,.636-.347l12.369,3.63a.509.509,0,0,1,.3.247.488.488,0,0,1,.044.389l-3.627,12.369a.451.451,0,0,1-.1.18.467.467,0,0,1-.156.128.5.5,0,0,1-.191.059A.517.517,0,0,1,2346.481,773Zm-11.581-4.473,11.38,3.355,3.354-11.378-11.378-3.355Z" transform="translate(-1004.795 -238.148)"/><path class="g" d="M2441.841,816.6a36.862,36.862,0,0,0,1.185-8.858c-.169-3.713-1.293-2.235-1.985,0s-1.192,4.193-2.711,4.915-4.188.649-3.792,3.109S2440.929,818.826,2441.841,816.6Z" transform="translate(-1049.211 -259.963)"/><path class="h" d="M1627.1,502.547l-428.33-1.795-2.45,584.185,428.33,1.795Z" transform="translate(-503.367 -125.63)"/><path class="o" d="M1367.263,1095.575l-125.306-.525-.582,139.04,125.306.526Z" transform="translate(-523.234 -387.619)"/><path class="m" d="M1268.228,1221.825c.147,5.844,7.152,10.742,5.2,16.259-.43,1.22-1.285,2.276-1.632,3.522a5.969,5.969,0,0,0,3.947,6.71,11.582,11.582,0,0,0,8.337-.625c2.639-1.094,5.032-2.684,7.644-3.858,5.836-2.622,12.391-3,18.676-4.211,6.38-1.224,12.721-3.355,19.2-2.874,7.469.558,14.185,4.474,21.169,7.191a66.332,66.332,0,0,0,22.367,4.434,24.084,24.084,0,0,0,11.647-2.032c7.062-3.646,9.824-12.788,7.023-20.011a19.368,19.368,0,0,0-8.611-9.657c-3.416-1.924-7.778-2.584-10.349-5.794-3.6-4.473-1.348-11.182-2.756-16.775a16.415,16.415,0,0,0-9.472-10.451c-4.065-1.76-9.132-2.025-12.179-5.628-3.31-3.908-2.189-9.305-2.762-13.979a23.106,23.106,0,0,0-10.959-16.215,29.985,29.985,0,0,0-5.5-2.7c-12.862-4.77-29.6-1.587-34.17,13.1-1.4,4.472-1.321,9.5-3.8,13.537-2.689,4.351-8.091,6.912-9.6,11.8-1.89,6.152,3.355,12.777,1.595,18.962-1.157,4.041-4.943,6.649-8.3,9.175S1268.128,1217.621,1268.228,1221.825Z" transform="translate(-535.066 -408.792)"/><path class="d" d="M1326.419,1262.257s29.892,9.567,34.382,15.612,9.59,36.787,9.59,36.787l-112.016-4.366s13.867-31.579,22.629-38.475,27.4-9.672,27.4-9.672Z" transform="translate(-530.729 -461.278)"/><path class="k" d="M1317.483,1206.225s-2.073-2.315-3.264-1.073c-3.031,3.165,1.2,6.15,3.6,6.575Z" transform="translate(-554.876 -435.994)"/><path class="g" d="M1335.871,1145.948a21.144,21.144,0,0,1,22.035,26.772c-1.81,7.712-3.355,13.936-5.664,18.643a21.063,21.063,0,0,0-1.448,15.338l1.532,5.159c-11.272,7.877-17.5,2.578-17.5,2.578l-1.795-12.167c-13.421.375-15.227-24.172-16.284-31.351-.048-.269-.1-.56-.139-.811a21.139,21.139,0,0,1,19.259-24.16Z" transform="translate(-556.299 -410.028)"/><path class="m" d="M1340.229,1165.959a88.861,88.861,0,0,1,8.253,7.382c2.8,2.722,5.716,5.628,6.805,9.38a27.389,27.389,0,0,0,5.883-11.368,19.811,19.811,0,0,0,1.117-5.865,22.078,22.078,0,0,0-2.181-8.142c-1.391-3.355-2.88-6.888-5.664-9.249a17.543,17.543,0,0,0-6.458-3.193,29.762,29.762,0,0,0-16.69-.336,21.417,21.417,0,0,0-12.957,10.182c-3.394,6.425-2.734,14.147-1.99,21.375a21.385,21.385,0,0,1,3.45-8.554,18.072,18.072,0,0,1,3.6-4.827c2.613-2.237,3.479-1.962,8.025-6.151C1333.38,1160.842,1336.545,1163.168,1340.229,1165.959Z" transform="translate(-556.017 -408.987)"/><path class="g" d="M1380.406,1203.8a3.117,3.117,0,0,1,1.407-1.72c1.359-.794,3.807-1.806,5.82-.312,2.947,2.189-1.213,9.763-6.822,7.135C1380.82,1208.918,1379.136,1207.671,1380.406,1203.8Z" transform="translate(-584.31 -434.326)"/><path class="f" d="M1327.1,1204.994a1.823,1.823,0,0,1,.056-1.068,1.842,1.842,0,1,1,2.175,2.425,1.934,1.934,0,0,1-.721.033,1.727,1.727,0,0,1-.677-.245,1.9,1.9,0,0,1-.532-.481,1.824,1.824,0,0,1-.313-.655Z" transform="translate(-560.995 -435.077)"/><path class="f" d="M1358.42,1203.893a1.842,1.842,0,1,1,2.245,1.348,1.754,1.754,0,0,1-.721.033,1.866,1.866,0,0,1-1.519-1.38Z" transform="translate(-574.801 -434.589)"/><path class="k" d="M1337.74,1228.413s1.454-1.292,2.415-1.119a2.747,2.747,0,0,1,1.582,1.265,2.134,2.134,0,0,1,1.6-1.309,26.7,26.7,0,0,1,4.423.469s-2.517,5.132-6.007,4.6a4.663,4.663,0,0,1-2.582-1.23,4.609,4.609,0,0,1-1.365-2.511Z" transform="translate(-565.712 -445.888)"/><path class="p" d="M1340.763,1229.818c3.991.469,7.531-2.762,7.576-2.8a.255.255,0,0,0,0-.369.268.268,0,0,0-.369,0c-.234.217-5.759,5.256-10.631,1.118a.208.208,0,0,0-.084-.057.2.2,0,0,0-.1-.021.184.184,0,0,0-.094.021.216.216,0,0,0-.084.057.281.281,0,0,0-.05.089.258.258,0,0,0-.011.1.209.209,0,0,0,.028.1.281.281,0,0,0,.062.078,6.925,6.925,0,0,0,3.752,1.682Z" transform="translate(-565.352 -445.603)"/><path class="f" d="M1363.371,1197.611a.742.742,0,0,0,.519-.392.737.737,0,0,0,.089-.284.762.762,0,0,0-.168-.566.677.677,0,0,0-.23-.191,9.26,9.26,0,0,0-6.152-.625.778.778,0,0,0-.274.124.979.979,0,0,0-.2.224.856.856,0,0,0-.1.28.9.9,0,0,0,.017.3.792.792,0,0,0,.352.469.766.766,0,0,0,.575.094,7.692,7.692,0,0,1,5.032.492.781.781,0,0,0,.538.079Z" transform="translate(-574.135 -431.809)"/><path class="f" d="M1329.214,1197.3a.7.7,0,0,0,.274-.191.7.7,0,0,0,.167-.285.654.654,0,0,0,.034-.3.751.751,0,0,0-.078-.29.848.848,0,0,0-.184-.236.808.808,0,0,0-.263-.145,9.1,9.1,0,0,0-6.15.48.765.765,0,0,0-.387,1.011.782.782,0,0,0,.43.4.761.761,0,0,0,.586-.017,7.637,7.637,0,0,1,5.032-.419.746.746,0,0,0,.538-.017Z" transform="translate(-559.019 -431.915)"/><path class="k" d="M1342.954,1212.532a3.329,3.329,0,0,1-2.114-.625,3.292,3.292,0,0,1-1.241-1.823.676.676,0,0,1,.078-.469,9.558,9.558,0,0,0,.874-6.106.6.6,0,0,1-.023-.264.619.619,0,0,1,.083-.25.626.626,0,0,1,.419-.313.708.708,0,0,1,.268,0,.631.631,0,0,1,.246.1.656.656,0,0,1,.18.2.679.679,0,0,1,.089.252,10.866,10.866,0,0,1-.877,6.79c.2.486.883,1.537,2.919,1.118a.693.693,0,0,1,.263-.017.659.659,0,0,1,.252.09.744.744,0,0,1,.19.185.653.653,0,0,1,.1.241.779.779,0,0,1,0,.269.656.656,0,0,1-.106.239.708.708,0,0,1-.2.18.662.662,0,0,1-.252.084,5.7,5.7,0,0,1-1.152.128Z" transform="translate(-566.525 -435.061)"/><g transform="translate(732.072 427.394)"><path class="k" d="M1322.423,652.72s-1.538-2.875-3.06-1.907c-3.88,2.461-.61,6.419,1.72,7.448Z" transform="translate(-1288.889 -619.084)"/><path class="g" d="M1324.79,619.924c0-.285.034-.56.063-.861a22.163,22.163,0,1,1,41.377,13.011c-2.533,4.965-4.753,9.21-7.005,12.7a31.683,31.683,0,0,0-4.893,19.487l.391,5.39c-14.248,5.927-19.793-1.376-19.793-1.376l.677-9.757a2.456,2.456,0,0,0-2.075-2.6h0C1316.788,653.252,1324.063,627.5,1324.79,619.924Z" transform="translate(-1291.105 -596.345)"/><path class="f" d="M1365.183,659.516a2.03,2.03,0,0,1,.447-1.111,2.067,2.067,0,0,1,3.663,1.079,2.1,2.1,0,0,1-.228,1.177,2.063,2.063,0,0,1-3.882-1.143Z" transform="translate(-1309.878 -622.179)"/><path class="f" d="M1333.162,649.856a2.033,2.033,0,0,1,.449-1.113,2.065,2.065,0,1,1-.449,1.116Z" transform="translate(-1295.76 -617.92)"/><path class="f" d="M1372.584,652.407a1.161,1.161,0,0,0,.626-.113,1.214,1.214,0,0,0,.558-1.61,6.481,6.481,0,0,0-8.6-2.9,1.212,1.212,0,0,0,.864,2.235,4.087,4.087,0,0,1,5.542,1.677,1.228,1.228,0,0,0,.4.489,1.214,1.214,0,0,0,.592.22Z" transform="translate(-1309.613 -617.587)"/><path class="f" d="M1338.688,643.385a1.159,1.159,0,0,0,.638-.113,1.2,1.2,0,0,0,.558-1.61,6.478,6.478,0,0,0-8.6-2.9,1.214,1.214,0,0,0,.874,2.237,4.085,4.085,0,0,1,5.54,1.678,1.181,1.181,0,0,0,.4.488,1.2,1.2,0,0,0,.588.222Z" transform="translate(-1294.669 -613.607)"/><path class="f" d="M1399.456,640.475l-7.41,14.359-3.936-1.185-.571-19.487Z" transform="translate(-1319.737 -611.829)"/><path class="g" d="M1386.517,666.646a3.324,3.324,0,0,1,1.868-1.391c1.582-.469,4.333-.883,6.006,1.118,2.448,2.97-3.686,9.635-8.734,5.547C1385.661,671.943,1384.264,670.259,1386.517,666.646Z" transform="translate(-1318.719 -625.367)"/><path class="k" d="M1343.8,664.853a4.125,4.125,0,0,0,3.752.241.453.453,0,0,0,.113-.084.438.438,0,0,0,.066-.12.553.553,0,0,0,.017-.138.364.364,0,0,0-.039-.133.351.351,0,0,0-.2-.181.36.36,0,0,0-.274.014,3.36,3.36,0,0,1-3.908-.951c-.29-.313-.436-.56-.425-.744s.336-.558.782-.938a10.6,10.6,0,0,0,3.607-6.219.414.414,0,0,0,0-.141.5.5,0,0,0-.05-.131.383.383,0,0,0-.1-.1.367.367,0,0,0-.269-.061.358.358,0,0,0-.13.049.4.4,0,0,0-.1.1.375.375,0,0,0-.056.128,9.991,9.991,0,0,1-3.355,5.842c-.56.492-1,.883-1.024,1.432a1.776,1.776,0,0,0,.61,1.269,4.9,4.9,0,0,0,.979.866Z" transform="translate(-1299.755 -621.091)"/><path class="f" d="M1330.024,620.323s-3.355,1.929-5.434,15.247c0,0,.345-15.036,2.162-16.517S1330.024,620.323,1330.024,620.323Z" transform="translate(-1291.986 -604.979)"/><path class="h" d="M1357.665,720.525l-22.093-.1-8.711,36.993-.292,71.013s20.237,9.909,46.969-2.83l-7.442-83.152Z" transform="translate(-1292.858 -649.862)"/><path class="c" d="M1382.18,720.6s33.269,14.242,39.777,23.333c6.016,8.387,5.2.43,22.428,47.526a19.439,19.439,0,0,1-2.5,18.066,13.12,13.12,0,0,1-6.152,4.574l-17.189,6.33,1.638,43.659-33.263,3.142Z" transform="translate(-1317.373 -649.937)"/><path class="c" d="M1308.992,720.43s-33.387,13.979-39.973,23.009.766,120.152.766,120.152L1303.02,867Z" transform="translate(-1266.278 -649.862)"/><path class="n" d="M1355.183,725.286l-3.908,6.593,7.7,93.547-12.565,20.1-9.181-20.7,9.366-93.534-2.814-6.621,7.626-2.8Z" transform="translate(-1297.558 -650.497)"/><path class="h" d="M1364.76,717.414l-1.638-3.639-10.4,3.6-8.578-3.986-1.471,3.941,1.8,6.811,7.862-5.061,7.632,5.6Z" transform="translate(-1299.956 -646.753)"/><path class="f" d="M1362.792,596.23c-.625-.649-1.8-1.18-2.337-.447a1.617,1.617,0,0,0-.2,1.057,9.964,9.964,0,0,0,.732,3.086c-3.7-4.377-9.909-5.759-15.657-5.7s-11.441,1.291-17.172.99c-2.27-.123-4.993-.3-6.334,1.537a3.943,3.943,0,0,0,.2,4.473,6.862,6.862,0,0,0,3.98,2.439,3.1,3.1,0,0,0-3.913,4.377c.972,1.706,3.221,2.092,5.178,2.237a176.147,176.147,0,0,0,18.73.61l-2.734,2.189a2.4,2.4,0,0,0-.781.883,1.8,1.8,0,0,0-.05.81,1.731,1.731,0,0,0,.313.746,4.643,4.643,0,0,0,3.635,1.876,18.833,18.833,0,0,0,4.221-.442,33.6,33.6,0,0,1,6.15-.4,3.26,3.26,0,0,1,1.251.219,4.1,4.1,0,0,1,1.237,1.2c2.189,2.658,5.664,3.791,8.945,4.8,1.024.313,2.376.521,2.947-.38a2.349,2.349,0,0,0,.269-1.2,27.655,27.655,0,0,0-3.395-14.292,1.563,1.563,0,0,0,2.83.1c.879-1.643-1.191-3.008-2.345-3.689-1.063-.625-2.074-.761-2.863-1.8C1364.441,599.876,1364.324,597.813,1362.792,596.23Z" transform="translate(-1290.498 -594.226)"/><path class="h" d="M1345.748,679.891,1334.09,677s.643,6.469,4.883,6.486A8.979,8.979,0,0,0,1345.748,679.891Z" transform="translate(-1296.172 -630.717)"/><path class="q" d="M1395.149,726.606l-6.655,26.952,6.532,2.763-9.876,55.888-2.98-91.612Z" transform="translate(-1317.369 -649.938)"/><path class="q" d="M1319.286,726.336l6.435,27-6.566,2.706,9.416,55.967,3.73-91.583Z" transform="translate(-1289.594 -649.863)"/></g><path class="m" d="M1370.953,853.941l-1.32,116.8H1264.01l1.33-117.993Z" transform="translate(-533.207 -280.802)"/><path class="f" d="M1326.679,866.516a4.017,4.017,0,0,1,2.534.654c.794.683.922,1.84,1.359,2.8,1.276,2.728,4.809,3.3,7.771,3.847s6.48,2.237,6.436,5.223a6.282,6.282,0,0,0,0,2.047,2.689,2.689,0,0,0,.781,1.046c2.033,1.84,4.787,2.634,7.146,4.032s4.507,3.908,3.908,6.621c-.269,1.251-1.118,2.354-1.292,3.628-.28,2.025,1.118,3.847,2.483,5.39l7.521,8.683a7.254,7.254,0,0,1,2.164,3.908c.213,2.756-2.628,4.8-3.255,7.5-.76,3.3,1.942,6.341,2.668,9.652a8.834,8.834,0,0,1-6.744,10.171,7.365,7.365,0,0,0-3.013.816c-1.387.984-1.448,2.958-1.778,4.629a10.913,10.913,0,0,1-6.81,7.984c-6.753,2.476-13.923-2.163-21.1-2.729-4.367-.352-8.706.838-13.084,1.04a29.181,29.181,0,0,1-14.806-3.3,4.092,4.092,0,0,1-1.382-1.007c-.889-1.118-.559-2.717-.738-4.127-.56-4.195-5.486-6.067-9.624-6.927s-9.086-2.237-10.266-6.291c-.626-2.147.05-4.534-.7-6.647-.906-2.554-3.629-4.015-4.982-6.363-1.876-3.266-.716-7.426.985-10.787s3.908-6.643,4.154-10.4a56.354,56.354,0,0,0-.782-7.42c-.18-2.483.42-5.307,2.5-6.665,2.543-1.677,5.955-.408,8.911-1.068,6.934-1.554,8.638-12.447,15.655-13.6a21.31,21.31,0,0,1,4.177.045c3.741.185,6.566-1.085,10.065-2.04A31.058,31.058,0,0,1,1326.679,866.516Z" transform="translate(-536.26 -286.801)"/><path class="r" d="M1372.444,1031.9H1275c2.107-9.359,6.749-26.694,12.894-31.459a29.444,29.444,0,0,1,8.911-4.277,90.917,90.917,0,0,1,17.6-3.355c1.563-.156,2.517-.211,2.517-.211l15.1-1.118a235.8,235.8,0,0,1,25.3,10.015c3.763,1.876,6.784,3.752,7.964,5.373C1367.914,1010.427,1370.676,1022.713,1372.444,1031.9Z" transform="translate(-538.052 -341.959)"/><path class="k" d="M1314,933.164s-2.063-2.3-3.242-1.063c-3.01,3.142.889,6.044,3.266,6.465Z" transform="translate(-553.334 -315.623)"/><path class="g" d="M1313.3,898.08c-.05-.269-.1-.56-.139-.805a21,21,0,1,1,41,2.606,106.9,106.9,0,0,1-4.6,15.976,32.857,32.857,0,0,0-1.213,22.013l.414,1.476c-11.184,7.829-17.523,1.964-17.523,1.964l-1.438-9.735a2.736,2.736,0,0,0-2.5-2.345C1313.563,928.174,1314.3,904.874,1313.3,898.08Z" transform="translate(-554.777 -289.82)"/><path class="k" d="M1332.26,953.2s1.543-1.118,2.465-.861a2.712,2.712,0,0,1,1.426,1.382,2.081,2.081,0,0,1,1.678-1.119,27.432,27.432,0,0,1,4.277.872s-2.941,4.77-6.3,3.908a4.533,4.533,0,0,1-3.5-4.021Z" transform="translate(-563.295 -324.689)"/><path class="f" d="M1352.981,929.782a2.137,2.137,0,0,1,3.39-2.026,2.188,2.188,0,0,1,.738,1,2.14,2.14,0,0,1-3.294,2.432,2.063,2.063,0,0,1-.553-.625,2.1,2.1,0,0,1-.28-.782Z" transform="translate(-572.421 -313.678)"/><path class="f" d="M1322.321,929.47a2.137,2.137,0,0,1,3.389-2.028,2.19,2.19,0,0,1,.739,1,2.145,2.145,0,0,1-2.539,2.79,2.177,2.177,0,0,1-.755-.357,2.2,2.2,0,0,1-.833-1.407Z" transform="translate(-558.902 -313.543)"/><path class="p" d="M1335.09,955.489c3.852.833,7.61-1.985,7.66-2.025a.265.265,0,0,0,.078-.166.248.248,0,0,0-.05-.175.265.265,0,0,0-.156-.1.254.254,0,0,0-.18.031c-.245.191-6.117,4.585-10.462.078a.217.217,0,0,0-.084-.055.244.244,0,0,0-.191,0,.223.223,0,0,0-.083.055.264.264,0,0,0,0,.364,6.774,6.774,0,0,0,3.467,1.99Z" transform="translate(-562.982 -325.01)"/><path class="f" d="M1358.911,920.87a.759.759,0,0,0,.43-1.116.745.745,0,0,0-.341-.3,9.017,9.017,0,0,0-6.033-.113.759.759,0,0,0-.508.661.741.741,0,0,0,.039.291.768.768,0,0,0,.95.469,7.519,7.519,0,0,1,4.954.067.782.782,0,0,0,.51.033Z" transform="translate(-572.199 -309.954)"/><path class="f" d="M1324.745,920.959a.7.7,0,0,0,.284-.156.743.743,0,0,0,.2-.264.753.753,0,0,0,.011-.575.764.764,0,0,0-.4-.414,8.945,8.945,0,0,0-6.033-.117.755.755,0,0,0-.391.386.755.755,0,0,0,.871,1.04,7.5,7.5,0,0,1,4.954.072.72.72,0,0,0,.508.028Z" transform="translate(-557.161 -309.993)"/><path class="k" d="M1336.4,938.611a3.793,3.793,0,0,0,1.174-.558.356.356,0,0,0,.1-.119.432.432,0,0,0,.044-.156.372.372,0,0,0-.016-.156.44.44,0,0,0-.078-.135.415.415,0,0,0-.117-.1.394.394,0,0,0-.447.053,2.829,2.829,0,0,1-3.4,0c-.363-.252-.458-.408-.469-.5-.033-.185.184-.492.469-.883a9.176,9.176,0,0,0,1.8-5.955.423.423,0,0,0-.028-.146.488.488,0,0,0-.083-.122.367.367,0,0,0-.124-.081.375.375,0,0,0-.145-.026.363.363,0,0,0-.146.03.353.353,0,0,0-.117.083.374.374,0,0,0-.083.123.412.412,0,0,0-.022.145,8.353,8.353,0,0,1-1.678,5.514c-.375.558-.67.961-.56,1.454a1.636,1.636,0,0,0,.782.983,3.6,3.6,0,0,0,3.147.547Z" transform="translate(-563.376 -314.74)"/><path class="f" d="M1344.033,904.3c-.419-1.024-.38-2.189-.833-3.2-1.157-2.55-4.674-2.8-6.894-4.512-2.739-2.114-3.47-6.475-6.71-7.728-1.432-.558-3.182-.391-4.323-1.407a7.739,7.739,0,0,1-1.563-2.908c-.442-1.011-1.363-2.032-2.466-1.884a2.574,2.574,0,0,0-1.3.71c-2.476,2.292-2.8,6.491-5.7,8.207a19.537,19.537,0,0,1-3.02,1.157,9.067,9.067,0,0,0-5.5,6.647c-2.159-1.407-2.45-4.551-1.582-6.979a53.475,53.475,0,0,1,3.792-6.71c1.207-2.275,1.876-4.781,3.014-7.083a9.714,9.714,0,0,1,5.329-5.262c2.032-.636,4.232-.206,6.335-.514a44.038,44.038,0,0,0,5.334-1.615,17.039,17.039,0,0,1,15.32,3.092,33.488,33.488,0,0,1,4,4.11l8.387,9.679a13.879,13.879,0,0,1,3.283,5.15c.938,3.355-.743,6.838-2.376,9.924-.794,1.51-1.784,3.171-3.439,3.563C1349.988,907.469,1345.537,907.972,1344.033,904.3Z" transform="translate(-550.694 -288.652)"/><path class="g" d="M1376.529,930.833a3.106,3.106,0,0,1,1.4-1.677c1.352-.782,3.785-1.795,5.784-.313,2.931,2.175-1.207,9.693-6.777,7.079C1376.931,935.893,1375.27,934.656,1376.529,930.833Z" transform="translate(-582.603 -314.012)"/><path class="d" d="M1738.8,571.4l-203.975-.854-.028,6.566,203.975.854Z" transform="translate(-652.584 -156.393)"/><path class="d" d="M1738.651,607.147l-203.973-.855-.028,6.566,203.975.855Z" transform="translate(-652.518 -172.152)"/><path class="d" d="M1738.5,642.876l-203.975-.855-.022,6.566,203.969.854Z" transform="translate(-652.452 -187.903)"/><path class="d" d="M1594.74,746.259l-60.74-.252.252-60.758,60.759.252Zm-55.417-5.547,50.128.208.207-50.124-50.128-.206Z" transform="translate(-652.231 -206.96)"/><path class="d" d="M1737.617,855.071l-203.969-.854-.03,6.566,203.968.854Z" transform="translate(-652.064 -281.448)"/><path class="d" d="M1737.467,890.8l-203.969-.855-.028,6.566,203.968.854Z" transform="translate(-651.997 -297.199)"/><path class="d" d="M1737.309,926.54l-203.968-.855-.028,6.566,203.968.855Z" transform="translate(-651.925 -312.954)"/><path class="d" d="M1593.563,1029.9l-60.764-.252.252-60.758,60.757.252Zm-55.423-5.547,50.128.208.206-50.128-50.128-.2Z" transform="translate(-651.704 -332.001)"/><path class="d" d="M1736.5,1120.435l-203.973-.855-.028,6.566,203.975.855Z" transform="translate(-651.57 -398.432)"/><path class="d" d="M1736.357,1156.165l-203.975-.855-.022,6.566,203.97.855Z" transform="translate(-651.508 -414.184)"/><path class="d" d="M1736.209,1191.908l-203.975-.855-.022,6.566,203.969.855Z" transform="translate(-651.441 -429.938)"/><path class="d" d="M1585.453,1437.558l-85.935-.358-.028,6.566,85.943.358Z" transform="translate(-637.018 -538.454)"/><path class="d" d="M1805.283,1438.482l-125.816-.532-.028,6.566,125.816.531Z" transform="translate(-716.348 -538.783)"/><path class="d" d="M1378.467,1436.7l-120.979-.5-.028,6.566,120.979.5Z" transform="translate(-530.32 -538.013)"/><path class="d" d="M1627.156,1470.381l-127.782-.531-.028,6.566,127.784.531Z" transform="translate(-636.948 -552.847)"/><path class="d" d="M1378.321,1469.34l-120.979-.51-.023,6.566,120.972.508Z" transform="translate(-530.259 -552.397)"/><path class="d" d="M1592.468,1295.284l-60.758-.251.252-60.758,60.757.245Zm-55.419-5.546,50.128.206.2-50.128-50.122-.206Z" transform="translate(-651.221 -449)"/><path class="m" d="M1562.365,1025.781h-.111a1.885,1.885,0,0,1-1.677-1.27,61.255,61.255,0,0,0-9.594-17.842,1.827,1.827,0,0,1-.325-.654,1.8,1.8,0,0,1-.05-.733,1.835,1.835,0,0,1,.228-.7,1.9,1.9,0,0,1,.486-.549,1.87,1.87,0,0,1,.655-.33,2.029,2.029,0,0,1,.732-.05,1.9,1.9,0,0,1,1.251.716,65.378,65.378,0,0,1,8.678,14.952,98.01,98.01,0,0,1,26.091-30.24,1.879,1.879,0,0,1,2.287,2.981,93.947,93.947,0,0,0-26.974,32.674,1.875,1.875,0,0,1-1.671,1.039Z" transform="translate(-659.545 -340.743)"/><path class="g" d="M2013.444,1522.71s-4.534,26.531-4.714,26.839,1.677,3.164,1.677,3.164l7.164,1.28,6.536-3s3.769-21.386,4.474-24.719S2013.444,1522.71,2013.444,1522.71Z" transform="translate(-861.508 -576.149)"/><path class="s" d="M2003.1,1571.84s-8.253,2.884-15.31-1.89c0,0-27.482,10.3-26.644,18.135,0,0-1.169,2.332,10.741,1.829s30.407-1.035,30.906-1.309S2005.621,1589.587,2003.1,1571.84Z" transform="translate(-840.523 -596.975)"/><path class="g" d="M2163.1,1522.708s7.006,26.531,6.827,26.838,1.676,3.164,1.676,3.164l7.165,1.281,6.534-3s-3.566-21.807-2.88-25.17S2163.1,1522.708,2163.1,1522.708Z" transform="translate(-929.567 -576.148)"/><path class="s" d="M2169.668,1571.84s-8.253,2.884-15.308-1.89c0,0-27.484,10.3-26.646,18.135,0,0-1.168,2.332,10.736,1.829s30.415-1.035,30.91-1.309S2172.192,1589.587,2169.668,1571.84Z" transform="translate(-913.953 -596.975)"/><path class="s" d="M2019.044,1222.412l-14.354,181.576h24.67s26.085-143.485,29.786-144.111,30.15,144.111,30.15,144.111h28.321l-14.476-186.278Z" transform="translate(-859.733 -441.692)"/><path class="d" d="M2085.073,973.08s-37.677,4.423-45.649,9.874-10.064,95.235-10.064,95.235l-1.251,39.846s49.508,16.775,89.784,0l2.1-39.846s18.826-91.03,5.823-94.754S2085.073,973.08,2085.073,973.08Z" transform="translate(-870.049 -333.849)"/><path class="g" d="M2207.12,1258.248s-2.684,11.037-3.317,15.058-4.234,7.442-2.162,8.57,6.253-5.49,6.253-5.49,2.573,7.867,3,10.406,2.345,6.879,4.221,6.71-1.007-12.217-1.007-12.217,3.427,9.908,5.195,10.126-.739-13.029-.739-13.029,3.142,10.746,4.122,11.373,1.823-.6,1.637-4.674a38.97,38.97,0,0,0-1.432-8.186s2.8,7.381,3.411,8.153,2.09,1.365,1.174-4.641-4.787-18.391-9.405-23.888Z" transform="translate(-946.278 -458.802)"/><path class="k" d="M2089.953,907.766s-1.482-2.745-2.932-1.817c-3.706,2.376-.558,6.152,1.679,7.13Z" transform="translate(-895.275 -304.17)"/><path class="g" d="M2092.2,876.18a6.567,6.567,0,0,1,.051-.822,21.249,21.249,0,1,1,39.666,12.3c-2.411,4.764-4.518,8.841-6.664,12.194a30.358,30.358,0,0,0-4.607,18.687l.4,5.159c-13.626,5.731-18.967-1.241-18.967-1.241l.616-9.349a2.379,2.379,0,0,0-.521-1.628,2.355,2.355,0,0,0-1.482-.85h0C2084.678,908.113,2091.544,883.437,2092.2,876.18Z" transform="translate(-897.42 -282.217)"/><path class="t" d="M2130.993,914.107a1.942,1.942,0,0,1,.43-1.06,1.98,1.98,0,1,1-.43,1.062Z" transform="translate(-915.409 -307.06)"/><path class="t" d="M2100.234,905a1.955,1.955,0,0,1,.429-1.062,1.978,1.978,0,0,1,3.5,1.038,2.017,2.017,0,0,1-.217,1.126,1.981,1.981,0,0,1-2.667.828,1.911,1.911,0,0,1-.6-.486,1.95,1.95,0,0,1-.447-1.445Z" transform="translate(-901.849 -303.043)"/><path class="t" d="M2137.875,907.257a1.156,1.156,0,0,0,1.267-1.077,1.124,1.124,0,0,0-.117-.6,6.214,6.214,0,0,0-8.246-2.739,1.167,1.167,0,0,0-.66,1.5,1.194,1.194,0,0,0,.614.639,1.176,1.176,0,0,0,.89.017,3.908,3.908,0,0,1,5.316,1.587,1.169,1.169,0,0,0,.938.671Z" transform="translate(-914.994 -302.637)"/><path class="t" d="M2105.378,898.742a1.166,1.166,0,0,0,.6-.106,1.141,1.141,0,0,0,.662-.972,1.108,1.108,0,0,0-.117-.6,6.21,6.21,0,0,0-8.247-2.745,1.19,1.19,0,0,0-.38.244,1.09,1.09,0,0,0-.257.371,1.227,1.227,0,0,0-.1.443,1.34,1.34,0,0,0,.08.446,1.169,1.169,0,0,0,1.057.736,1.143,1.143,0,0,0,.447-.08,3.909,3.909,0,0,1,5.316,1.593,1.152,1.152,0,0,0,.938.671Z" transform="translate(-900.664 -298.881)"/><path class="s" d="M2163.679,895.74l-7.036,13.782-3.775-1.118-.624-18.665Z" transform="translate(-924.777 -297.109)"/><path class="g" d="M2151.407,920.851a3.167,3.167,0,0,1,1.785-1.341c1.515-.458,4.142-.866,5.753,1.068,2.359,2.83-3.489,9.236-8.344,5.345C2150.6,925.922,2149.267,924.312,2151.407,920.851Z" transform="translate(-923.875 -310.063)"/><path class="k" d="M2110.451,919.3a3.908,3.908,0,0,0,3.6.219.312.312,0,0,0,.106-.081.384.384,0,0,0,.066-.116.25.25,0,0,0,.017-.133.267.267,0,0,0-.032-.13.354.354,0,0,0-.47-.156,3.212,3.212,0,0,1-3.774-.895,1.209,1.209,0,0,1-.414-.716c0-.234.313-.508.749-.894a10.106,10.106,0,0,0,3.427-5.966.356.356,0,0,0-.052-.26.331.331,0,0,0-.212-.156.347.347,0,0,0-.407.263,9.314,9.314,0,0,1-3.216,5.592c-.559.469-.95.849-.978,1.376a1.706,1.706,0,0,0,.174.664,1.688,1.688,0,0,0,.421.544,4.257,4.257,0,0,0,.994.844Z" transform="translate(-905.658 -306.044)"/><path class="h" d="M2115.069,932.3s-8.117.258-12.99-2.578c0,0,.7,6.291,5.323,7.207S2115.069,932.3,2115.069,932.3Z" transform="translate(-902.666 -314.733)"/><path class="s" d="M2097.156,876.718s-3.231,1.862-5.149,14.622c0,0,.267-14.4,2-15.824S2097.156,876.718,2097.156,876.718Z" transform="translate(-898.231 -290.65)"/><path class="s" d="M2128.856,846.537c-4.221-4.724-11.983-4.316-17-8.2A29.57,29.57,0,0,0,2118.32,847l-22.367-6.469a50.051,50.051,0,0,0,7.526,6.274,95.089,95.089,0,0,1-17.435-.113,3.452,3.452,0,0,0,.208,3.047c2.177,5.39,4.857,11.306,10.243,13.487a16.361,16.361,0,0,0,5.284,1.023c7.122.386,15-1.359,20.889,2.658,2.729,1.868,6.117,8.337,10.006,7.4C2136.163,873.482,2141.944,861.21,2128.856,846.537Z" transform="translate(-895.467 -274.45)"/><path class="d" d="M1987.518,987.11c-19.073,4.377-47.16,56.525-54.523,65.18s-32.464,36.782-32.464,36.782l14.539,6.044s40.42-21.907,56.943-40.885S1987.518,987.11,1987.518,987.11Z" transform="translate(-813.814 -340.033)"/><path class="m" d="M1725.566,983.043l-19.817-9.019a5.173,5.173,0,0,0-7.318,4.7l-.049,25.626a5.174,5.174,0,0,0,3.029,4.72l11.1,5.032a5.169,5.169,0,0,0,6.938-2.769l8.774-21.651a5.166,5.166,0,0,0-2.658-6.636Z" transform="translate(-724.697 -334.06)"/><path class="f" d="M1735.673,979.5l-2.617-1.185-15.9,34.953,2.611,1.185a21.212,21.212,0,0,1,12.3,21.327,16.551,16.551,0,0,0,9.618,16.657l188.524,85.78,37.015-81.345L1778.715,971.09a16.559,16.559,0,0,0-18.877,3.691h0a21.18,21.18,0,0,1-24.164,4.723Z" transform="translate(-732.97 -332.316)"/><path class="f" d="M2246.769,1189.31l-31.338,68.871,26.683,12.139,31.341-68.865Z" transform="translate(-952.636 -429.172)"/><path class="m" d="M1810.246,977.8l-37.017,81.352L1993.312,1159.3a1.736,1.736,0,0,0,2.294-.855l35.578-78.2a1.737,1.737,0,0,0-.855-2.294Z" transform="translate(-757.694 -335.929)"/><path class="h" d="M1832.264,1085.19l-7.834,17.215,143,65.08,7.834-17.217Z" transform="translate(-780.265 -383.271)"/><path class="f" d="M2135.714,1124.23l-37.423,82.231,81.972,37.3,37.418-82.232Z" transform="translate(-900.995 -400.482)"/><path class="f" d="M2139.752,1310.158a5.9,5.9,0,0,1-2.472-.559l-101.815-46.326a5.986,5.986,0,1,1,4.953-10.9l96.37,43.851,2.8-6.15a5.984,5.984,0,0,1,10.892,4.96l-5.289,11.619a5.987,5.987,0,0,1-5.436,3.507Z" transform="translate(-871.753 -456.738)"/><path class="g" d="M2183.661,1172.07s-10.162,5.094-13.633,7.207-8.387,1.582-7.935,3.908,8.226,1.213,8.226,1.213-4.332,7.051-6,9.019-3.741,6.23-2.4,7.56,8.665-8.667,8.665-8.667-5.338,9.019-4.362,10.512,9.461-8.991,9.461-8.991-6.15,9.344-6.015,10.5,1.637,1,4.629-1.779a38.593,38.593,0,0,0,5.315-6.385,87.642,87.642,0,0,0-4.016,7.879c-.172.99.313,2.472,4.3-2.109s10.93-15.544,12.139-22.617Z" transform="translate(-928.857 -421.572)"/><path class="d" d="M2197.86,991.6q1.956,1.293,3.908,2.847c21.448,17.094,41.785,56.905,36.948,67.81-5.134,11.569-31.436,40.875-31.436,40.875l-15.655-8.511s15.309-28.007,16.216-36.015-10.971-23.484-10.971-23.484Z" transform="translate(-942.145 -342.012)"/><path class="u" d="M342.37,809.647c-.386,5.784,1.851,11.742.241,17.3-2.131,7.38-10.188,11.473-13.609,18.35-3.585,7.2-1.677,16.668-6.766,22.926-1.8,2.237-4.312,3.763-6.228,5.888a15.288,15.288,0,0,0-1.207,18.324c4.166,6.057,12.194,8.175,19.57,8.13s14.622-1.79,21.941-1.454c7.465.352,14.767,2.858,22.243,2.611,10.338-.336,20.023-6.061,26.733-13.929s10.742-17.725,13.309-27.751a60.572,60.572,0,0,0,2.014-11.63c.844-15.338-6.929-29.814-15.909-42.273-4.1-5.686-8.739-11.345-15.1-14.314C375.181,785.078,343.694,789.624,342.37,809.647Z" transform="translate(-113.655 -252.656)"/><path class="g" d="M480.22,1512.13s-2.628,25.933,2.667,28.875c9.59,5.328,27.275,10.41,25.8,14.984s-43.877,4.754-45.051.56,3.572-16.937-1.46-41.791Z" transform="translate(-179.719 -571.485)"/><path class="o" d="M465.064,1573.21c-.453,4.648-.844,7.828-.425,9.314,1.174,4.171,43.57,3.994,45.051-.558,1.118-3.394-8.264-7.219-17.15-11.027C490.444,1574.419,485.965,1579.921,465.064,1573.21Z" transform="translate(-180.731 -597.412)"/><path class="g" d="M333.369,1510.433s-7.007,25.107-2.287,28.907c8.539,6.879,25.106,14.9,22.864,19.157s-44.039-2.8-44.493-7.1,6.41-16.088,5.675-41.428Z" transform="translate(-112.387 -570.531)"/><path class="o" d="M311.457,1567.78c-1.235,4.473-2.159,7.571-2,9.109.453,4.31,42.255,11.356,44.493,7.1,1.677-3.153-6.911-8.515-15.019-13.784C336.268,1573.316,330.912,1577.973,311.457,1567.78Z" transform="translate(-112.39 -596.02)"/><path class="g" d="M508.5,964.939s8.911,11.927,16.328,11.927,32.655-31.537,32.655-31.537l5.941,9.55s-21.154,46.109-40.444,46.477-33.768-21.147-33.4-22.265S502.2,964.938,502.2,964.938Z" transform="translate(-191.802 -321.616)"/><path class="o" d="M410.421,1101s11.512,13.945,16.707,30.272-8.583,209.767-8.583,209.767h-23s-12.207-172.264-12.207-173.8c0-6.017-45.291,173.8-45.291,173.8H315.064s12.43-210.572,41.272-240.039l27,1.677Z" transform="translate(-114.866 -390.242)"/><path class="f" d="M442.9,1086.237v7.269s-13.732,13.353-54.091,0l-.089-7.269L424.161,1084Z" transform="translate(-147.342 -382.747)"/><path class="h" d="M396.7,928.193s14.3-.532,21.562,4.473c5.189,3.583,16.651,23.8,16.651,23.8l-13.157,11.183a16.281,16.281,0,0,1-9.114,18.318l-2.237,29.5s-23.009,13.359-54.176,0c0,0-5.941-55.289-11.5-50.464a73.289,73.289,0,0,0-8.891,9.092L315.06,953.494s22.651-22.7,30.149-26.252a36.261,36.261,0,0,1,31.811-.313Z" transform="translate(-114.868 -311.976)"/><path class="g" d="M321.664,997.264S309.6,1011.343,311,1015.242s22.686,35.982,25.537,42.065,2.014,9.7,2.014,9.7l-10.853,5.284s-.56-8.583-2.923-11.111-38.263-39.538-37.429-51.224,17.33-29.556,17.33-29.556Z" transform="translate(-102.64 -337.075)"/><path class="g" d="M472.3,849.195s1.571-3.086,3.21-2.092c4.166,2.539.469,6.962-1.979,8.107Z" transform="translate(-184.186 -278.225)"/><path class="g" d="M406.826,793.317a23.541,23.541,0,0,0-16.037,35.131c4.154,7.784,7.571,14.04,11.434,18.447a23.431,23.431,0,0,1,5.961,16.093l-.167,5.989c14.383,5.25,20.011,1.638,20.011,1.638l-2-17.486c14.539-3.439,9.455-30.385,8.539-38.414a8.55,8.55,0,0,0-.083-.912,23.553,23.553,0,0,0-27.655-20.494Z" transform="translate(-146.81 -254.43)"/><path class="u" d="M404.5,816.254c-3.557,5.334-7.387,10.631-9.824,16.512-.269.649-2.153,5.525-1.393,5.972-4.126-2.448-7.051-6.475-9.59-10.551a24.7,24.7,0,0,1-.838-23.541c3.507-7.32,10.306-11.692,18.157-13.241,8.42-1.677,18.022.128,24.044,6.632,5.636,6.1,6.821,14.5,8.286,22.332-1.638-8.8-14.314-14.047-21.807-16.36.219.067-4.44,8.264-4.69,8.673Q405.683,814.476,404.5,816.254Z" transform="translate(-143.621 -253.498)"/><path class="g" d="M400.433,865.3a3.526,3.526,0,0,0-2.007-1.443c-1.677-.469-4.624-.85-6.358,1.33-2.544,3.2,4.1,10.162,9.388,5.72C401.457,870.907,402.9,869.091,400.433,865.3Z" transform="translate(-148.57 -285.54)"/><path class="f" d="M462.18,850.568a2.064,2.064,0,1,0-.578,1.462A2.063,2.063,0,0,0,462.18,850.568Z" transform="translate(-177.914 -278.95)"/><path class="f" d="M428.142,858.4a2.053,2.053,0,1,0-1.235,1.921,2.053,2.053,0,0,0,1.235-1.921Z" transform="translate(-162.903 -282.399)"/><path class="n" d="M452.926,876.618s-2.706-1.951-3.741-1.627a3.089,3.089,0,0,0-1.576,1.61,2.358,2.358,0,0,0-1.946-1.219c-1.274,0-3.908,3.55-3.908,3.55s3.813,5.5,7.66,4.67,3.483-6.71,3.483-6.71Z" transform="translate(-170.716 -290.591)"/><path class="f" d="M419.141,852.381a.874.874,0,0,1-.694-.223.857.857,0,0,1-.039-1.209,10.283,10.283,0,0,1,6.235-2.851.855.855,0,0,1,.83.469.842.842,0,0,1,.092.321.877.877,0,0,1-.782.922,8.523,8.523,0,0,0-5.128,2.315.838.838,0,0,1-.514.263Z" transform="translate(-160.327 -278.749)"/><path class="f" d="M454.4,842.6a.854.854,0,0,1-.375-1.563,10.134,10.134,0,0,1,6.71-1.3.855.855,0,0,1-.263,1.688,8.483,8.483,0,0,0-5.514,1.035.828.828,0,0,1-.56.135Z" transform="translate(-175.96 -275.014)"/><path class="k" d="M447.877,863.248a3.655,3.655,0,0,0,2.919-3.6.7.7,0,0,0-.219-.486,10.63,10.63,0,0,1-2.689-6.324.716.716,0,0,0-1.251-.452.728.728,0,0,0-.189.519,12.046,12.046,0,0,0,2.89,7.057c-.078.56-.514,1.907-2.8,2.053a.721.721,0,0,0,.089,1.437,6.316,6.316,0,0,0,1.241-.2Z" transform="translate(-172.557 -280.535)"/><path class="v" d="M452.923,877.93l-11.183,2.315s4.188,2.745,7.22,2.293S452.923,877.93,452.923,877.93Z" transform="translate(-170.715 -291.903)"/><path class="g" d="M359.753,1106.63s9.422,13.223,8.465,16.293-5,11.742-5.306,13.246-.124,9.713-.961,10.982-2.834-8.784-2.834-8.784.5,8.819-1.029,9.372-2.9-8.858-2.9-8.858.8,8.947-.705,8.947-2.4-8.6-2.4-8.6.521,6.934-.671,6.951-3.852-11.328-1.515-15.321c5.519-9.416,3.908-14.461,3.908-14.461Z" transform="translate(-129.814 -392.723)"/><path class="g" d="M378.695,1123.67s4.681,7.862,4.737,10.853.922,9.068-.364,9.053-3.031-8.427-3.958-8.785-.938-4.16-.938-4.16Z" transform="translate(-142.69 -400.235)"/><path class="e" d="M410.516,1019.277c-10.434,0-14.784-10.427-14.828-10.534a.36.36,0,0,1-.028-.145.4.4,0,0,1,.03-.156.37.37,0,0,1,.084-.123.31.31,0,0,1,.125-.085.408.408,0,0,1,.3,0,.464.464,0,0,1,.125.084.441.441,0,0,1,.081.128c.039.1,4.205,10.065,14.114,10.065a15.6,15.6,0,0,0,13.817-7.3.377.377,0,0,1,.225-.191.385.385,0,0,1,.463.542,16.405,16.405,0,0,1-14.5,7.716Z" transform="translate(-150.399 -349.338)"/><path class="e" d="M500.523,992.843a.383.383,0,0,1-.386-.341,22.085,22.085,0,0,0-6.3-12.111.387.387,0,0,1,.536-.558,22.483,22.483,0,0,1,6.532,12.586.391.391,0,0,1-.009.156.357.357,0,0,1-.067.134.35.35,0,0,1-.114.1.414.414,0,0,1-.144.045Z" transform="translate(-193.633 -336.782)"/><path class="b" d="M446.178,1106.181a6.813,6.813,0,1,1,4.81-2,6.813,6.813,0,0,1-4.81,2Zm0-10.523a3.718,3.718,0,0,0-.733,7.365,3.678,3.678,0,0,0,2.15-.213,3.718,3.718,0,0,0-1.416-7.152Z" transform="translate(-169.667 -386.522)"/><path class="g" d="M618.7,925.018c.486-.677,7.906-11.278,7.906-11.278l9.294,13.085-12.558,11.267Z" transform="translate(-248.727 -307.688)"/><path class="h" d="M749.456,771.921,603.545,807.063l46.517,193.132,145.911-35.138Z" transform="translate(-242.045 -245.168)"/><path class="b" d="M688.963,843.159l-61.988,14.934a.325.325,0,0,1-.386-.241l-.234-.968a.328.328,0,0,1,.041-.242.321.321,0,0,1,.2-.144l61.982-14.93a.324.324,0,0,1,.125,0,.32.32,0,0,1,.21.127.3.3,0,0,1,.05.114l.236.968a.336.336,0,0,1,0,.125.329.329,0,0,1-.044.117.312.312,0,0,1-.2.146Z" transform="translate(-252.096 -275.868)"/><path class="b" d="M693.99,864.037,632,878.967a.312.312,0,0,1-.242-.038.307.307,0,0,1-.091-.084.311.311,0,0,1-.053-.112l-.235-.968a.315.315,0,0,1,0-.127.322.322,0,0,1,.13-.21.31.31,0,0,1,.116-.052l61.982-14.934a.313.313,0,0,1,.386.241l.236.968a.325.325,0,0,1-.236.386Z" transform="translate(-254.312 -285.072)"/><path class="b" d="M758.7,936.8l-61.988,14.93a.331.331,0,0,1-.125,0,.3.3,0,0,1-.117-.042.327.327,0,0,1-.091-.084.311.311,0,0,1-.053-.114l-.225-.962a.322.322,0,0,1,.241-.386l61.98-14.935a.322.322,0,0,1,.335.125.337.337,0,0,1,.052.114l.235.968a.344.344,0,0,1-.127.333.312.312,0,0,1-.112.051Z" transform="translate(-282.842 -317.148)"/><path class="b" d="M764.187,959.575,702.2,974.51a.323.323,0,0,1-.127,0,.3.3,0,0,1-.117-.044.306.306,0,0,1-.142-.2l-.236-.968a.323.323,0,0,1,.236-.386l61.988-14.924a.313.313,0,0,1,.333.12.308.308,0,0,1,.053.114l.235.968a.313.313,0,0,1-.042.241.323.323,0,0,1-.2.144Z" transform="translate(-285.263 -327.197)"/><path class="b" d="M785.34,937.894,699.5,958.577a.323.323,0,0,1-.386-.234l-.235-.973a.321.321,0,0,1,.122-.335.316.316,0,0,1,.112-.053l85.865-20.689a.325.325,0,0,1,.386.241l.228.968a.316.316,0,0,1,0,.131.3.3,0,0,1-.049.122.292.292,0,0,1-.094.092.312.312,0,0,1-.124.047Z" transform="translate(-284.071 -317.629)"/><path class="b" d="M707.7,920.977l-61.982,14.935a.33.33,0,0,1-.392-.241l-.228-.968a.371.371,0,0,1,.042-.244.3.3,0,0,1,.084-.092.343.343,0,0,1,.116-.052l61.982-14.93a.325.325,0,0,1,.391.236l.23.968a.316.316,0,0,1,0,.125.312.312,0,0,1-.042.117.329.329,0,0,1-.085.092A.313.313,0,0,1,707.7,920.977Z" transform="translate(-260.36 -310.17)"/><path class="b" d="M810.7,835.928l-61.977,14.93a.33.33,0,0,1-.391-.241l-.228-.968a.319.319,0,0,1,0-.125.327.327,0,0,1,.042-.117.309.309,0,0,1,.084-.092.3.3,0,0,1,.113-.052l61.982-14.93a.33.33,0,0,1,.391.234l.23.968a.325.325,0,0,1-.235.391Z" transform="translate(-305.764 -272.68)"/><path class="b" d="M762.678,850.158,635.43,880.81a.356.356,0,0,1-.242-.044.326.326,0,0,1-.091-.086.335.335,0,0,1-.05-.115l-.235-.968a.315.315,0,0,1,0-.127.332.332,0,0,1,.044-.117.348.348,0,0,1,.086-.092.334.334,0,0,1,.114-.05L762.3,848.558a.315.315,0,0,1,.125,0,.33.33,0,0,1,.117.044.355.355,0,0,1,.092.088.313.313,0,0,1,.052.114l.235.968a.321.321,0,0,1-.122.335.325.325,0,0,1-.113.053Z" transform="translate(-255.825 -278.952)"/><path class="b" d="M766.561,866.286,639.326,896.939a.33.33,0,0,1-.244-.041.326.326,0,0,1-.147-.2l-.23-.968a.332.332,0,0,1,.126-.335.325.325,0,0,1,.113-.053L766.192,864.69a.335.335,0,0,1,.125,0,.312.312,0,0,1,.209.131.3.3,0,0,1,.052.114l.234.968a.324.324,0,0,1-.241.386Z" transform="translate(-257.537 -286.062)"/><path class="b" d="M769.757,879.578,642.5,910.219a.319.319,0,0,1-.244-.036.324.324,0,0,1-.147-.2l-.23-.968a.323.323,0,0,1,.235-.391l127.256-30.641a.31.31,0,0,1,.384.235l.236.968a.332.332,0,0,1-.241.386Z" transform="translate(-258.944 -291.929)"/><path class="b" d="M672.2,978.459,654.164,982.8a.728.728,0,0,1-.291.011.788.788,0,0,1-.485-.3.78.78,0,0,1-.119-.267l-4.344-18.038a.744.744,0,0,1,.56-.894l18.027-4.329a.755.755,0,0,1,.293-.011.739.739,0,0,1,.6.572l4.345,18.038a.738.738,0,0,1-.547.879Zm-17.653,2.728,16.6-4-4-16.606L650.54,964.57Z" transform="translate(-262.041 -327.625)"/><path class="b" d="M776.074,1008.915l-61.982,14.93a.338.338,0,0,1-.244-.039.331.331,0,0,1-.147-.2l-.228-.968a.315.315,0,0,1,0-.122.29.29,0,0,1,.044-.117.311.311,0,0,1,.084-.1.4.4,0,0,1,.113-.05l61.983-14.93a.328.328,0,0,1,.391.234l.228.968a.322.322,0,0,1-.234.391Z" transform="translate(-290.499 -348.938)"/><path class="b" d="M797.209,987.235l-85.863,20.689a.333.333,0,0,1-.386-.241l-.234-.968a.327.327,0,0,1,.241-.391l85.858-20.687a.31.31,0,0,1,.125,0,.328.328,0,0,1,.117.042.312.312,0,0,1,.144.2l.234.968a.325.325,0,0,1-.234.391Z" transform="translate(-289.291 -339.382)"/><path class="b" d="M685.909,1035.376l-18.055,4.345a.735.735,0,0,1-.292.011.782.782,0,0,1-.273-.1.824.824,0,0,1-.213-.2.781.781,0,0,1-.117-.269l-4.344-18.039a.74.74,0,0,1,.292-.777.777.777,0,0,1,.267-.117l18.044-4.344a.733.733,0,0,1,.289-.011.7.7,0,0,1,.27.106.671.671,0,0,1,.211.2.716.716,0,0,1,.117.263l4.351,18.039a.746.746,0,0,1-.549.894Zm-17.666,2.734,16.6-4-4-16.6-16.6,4.021Z" transform="translate(-268.077 -352.709)"/><path class="n" d="M678.036,1032.494h-.063a1.012,1.012,0,0,1-1.007-.441,32.376,32.376,0,0,0-7.152-7.9.994.994,0,0,1,.516-1.712,1.02,1.02,0,0,1,.707.156,34.47,34.47,0,0,1,6.324,6.536,51.465,51.465,0,0,1,9.505-18.736.978.978,0,0,1,.3-.247,1.069,1.069,0,0,1,.367-.117,1.124,1.124,0,0,1,.383.033,1.092,1.092,0,0,1,.341.18.986.986,0,0,1,.247.3.962.962,0,0,1,.116.364.988.988,0,0,1-.211.727,49.354,49.354,0,0,0-9.635,20.091,1,1,0,0,1-.738.759Z" transform="translate(-271.119 -350.138)"/><path class="b" d="M785.216,1046.869,723.235,1061.8a.353.353,0,0,1-.125,0,.3.3,0,0,1-.119-.039.286.286,0,0,1-.091-.089.3.3,0,0,1-.052-.113l-.234-.968a.313.313,0,0,1,.039-.239.33.33,0,0,1,.2-.147l61.988-14.935a.336.336,0,0,1,.242.039.323.323,0,0,1,.144.2l.235.968a.3.3,0,0,1,0,.123.353.353,0,0,1-.044.124.422.422,0,0,1-.086.089.367.367,0,0,1-.111.053Z" transform="translate(-294.531 -365.673)"/><path class="b" d="M811.813,1047.966l-85.859,20.688a.33.33,0,0,1-.241-.039.312.312,0,0,1-.145-.2l-.234-.968a.336.336,0,0,1,.04-.245.328.328,0,0,1,.2-.146l85.858-20.689a.343.343,0,0,1,.125,0,.29.29,0,0,1,.117.039.274.274,0,0,1,.092.089.315.315,0,0,1,.052.113l.234.968a.325.325,0,0,1,0,.128.311.311,0,0,1-.044.117.316.316,0,0,1-.087.1.443.443,0,0,1-.116.05Z" transform="translate(-295.732 -366.154)"/><path class="b" d="M698.721,1088.515l-18.038,4.345a.742.742,0,0,1-.292.011.688.688,0,0,1-.272-.106.722.722,0,0,1-.211-.2.778.778,0,0,1-.119-.269l-4.344-18.038a.741.741,0,0,1,.292-.777.786.786,0,0,1,.267-.117l18.044-4.345a.738.738,0,0,1,.291-.011.7.7,0,0,1,.27.106.729.729,0,0,1,.211.2.792.792,0,0,1,.117.269l4.351,18.038a.735.735,0,0,1-.3.777.8.8,0,0,1-.269.117Zm-17.666,2.728,16.6-4-4.015-16.571-16.6,4Z" transform="translate(-273.732 -376.136)"/><path class="b" d="M797.554,1098.107l-61.983,14.928a.317.317,0,0,1-.125,0,.312.312,0,0,1-.117-.039.279.279,0,0,1-.092-.089.307.307,0,0,1-.05-.111l-.234-.968a.318.318,0,0,1,0-.122.35.35,0,0,1,.044-.124.309.309,0,0,1,.086-.089.4.4,0,0,1,.114-.05l61.982-14.934a.325.325,0,0,1,.127,0,.3.3,0,0,1,.117.046.317.317,0,0,1,.092.082.405.405,0,0,1,.052.118l.235.967a.314.314,0,0,1-.039.241.311.311,0,0,1-.086.094A.373.373,0,0,1,797.554,1098.107Z" transform="translate(-299.97 -388.258)"/><path class="b" d="M803.045,1120.876l-61.983,14.934a.325.325,0,0,1-.391-.241l-.228-.968a.31.31,0,0,1,0-.124.276.276,0,0,1,.042-.117.31.31,0,0,1,.085-.095.372.372,0,0,1,.113-.05l61.982-14.93a.329.329,0,0,1,.391.235l.23.968a.292.292,0,0,1,0,.122.285.285,0,0,1-.042.117.331.331,0,0,1-.084.094.387.387,0,0,1-.114.05Z" transform="translate(-302.39 -398.304)"/><path class="b" d="M824.182,1099.2l-85.865,20.689a.348.348,0,0,1-.239-.039.344.344,0,0,1-.147-.2l-.23-.968a.32.32,0,0,1,.234-.391l85.858-20.689a.315.315,0,0,1,.125,0,.282.282,0,0,1,.209.128.315.315,0,0,1,.05.112l.234.966a.318.318,0,0,1,0,.13.356.356,0,0,1-.042.117.415.415,0,0,1-.086.1.381.381,0,0,1-.115.05Z" transform="translate(-301.185 -388.743)"/><path class="b" d="M711.062,1139.764l-18.038,4.345a.736.736,0,0,1-.291.011.788.788,0,0,1-.485-.3.785.785,0,0,1-.119-.269l-4.344-18.038a.741.741,0,0,1-.009-.291.758.758,0,0,1,.1-.274.717.717,0,0,1,.2-.211.76.76,0,0,1,.266-.117l18-4.334a.741.741,0,0,1,.291-.011.687.687,0,0,1,.272.106.717.717,0,0,1,.211.2.778.778,0,0,1,.119.269l4.34,18.036a.744.744,0,0,1-.525.883Zm-17.666,2.717,16.6-4-4-16.594-16.6,4Z" transform="translate(-279.172 -398.733)"/><path class="g" d="M610.348,929.056s-.816-7.157,1.5-10.631,6.94-12.341,8.286-9.449-2.5,11.048-2.315,13.207,8.5,8.841-1.532,16.415S610.348,929.056,610.348,929.056Z" transform="translate(-244.68 -305.341)"/><path class="m" d="M829.089,1144.16H614.11v254.824H829.089Z" transform="translate(-246.702 -409.269)"/><path class="w" d="M826.792,1123.67H590.27v46.018H826.792Z" transform="translate(-236.193 -400.235)"/></g></svg>