<svg xmlns="http://www.w3.org/2000/svg" width="200.916" height="188.88" viewBox="0 0 200.916 188.88"><defs><style>.a{fill:#4c6085;}</style></defs><g transform="translate(0 -1.333)"><g transform="translate(0 1.333)"><path class="a" d="M9.862,129.746H121.733c0-25.039-17.441-46.064-41.143-52.389a35.859,35.859,0,1,0-29.567,0C27.3,83.682,9.862,104.707,9.862,129.746Z" transform="translate(34.663 25.133)"/><path class="a" d="M6.772,59.285a6.775,6.775,0,0,0,6.772-6.772V14.877H51.179a6.772,6.772,0,0,0,0-13.544H12.528A12.538,12.538,0,0,0,0,13.861V52.512A6.769,6.769,0,0,0,6.772,59.285Z" transform="translate(0 -1.333)"/><path class="a" d="M77.093,1.333H38.437a6.772,6.772,0,0,0,0,13.544H76.072V52.512a6.772,6.772,0,1,0,13.544,0V13.866A12.543,12.543,0,0,0,77.093,1.333Z" transform="translate(111.295 -1.333)"/><path class="a" d="M82.845,30.333a6.775,6.775,0,0,0-6.772,6.772V74.74H38.438a6.772,6.772,0,1,0,0,13.544H77.085A12.551,12.551,0,0,0,89.618,75.752V37.105A6.775,6.775,0,0,0,82.845,30.333Z" transform="translate(111.299 100.595)"/><path class="a" d="M51.179,74.74H13.544V37.105A6.772,6.772,0,1,0,0,37.105V75.752A12.544,12.544,0,0,0,12.528,88.285H51.179a6.772,6.772,0,0,0,0-13.544Z" transform="translate(0 100.595)"/></g></g></svg>